<?xml version="1.0" encoding="UTF-8"?>
<svg xmlns="http://www.w3.org/2000/svg" xmlns:xlink="http://www.w3.org/1999/xlink" width="600" height="450" viewBox="0 0 600 450">
<defs>
<g>
<g id="glyph-0-0-4f99f423">
<path d="M 4.984375 -2 C 4.984375 -2.140625 4.875 -2.140625 4.78125 -2.140625 C 4.609375 -2.140625 4.609375 -2.125 4.5 -1.875 C 4.234375 -1.203125 3.6875 -0.15625 2.890625 -0.15625 C 2.5 -0.15625 2.5 -0.5 2.5 -0.734375 C 2.5 -0.828125 2.5 -1.046875 2.609375 -1.4375 L 3.640625 -5.59375 L 4.828125 -5.59375 C 5.0625 -5.59375 5.21875 -5.59375 5.21875 -5.859375 C 5.21875 -6.03125 5.09375 -6.03125 4.875 -6.03125 L 3.75 -6.03125 L 4.265625 -8.109375 C 4.328125 -8.296875 4.328125 -8.328125 4.328125 -8.40625 C 4.328125 -8.6875 4.09375 -8.765625 3.953125 -8.765625 C 3.59375 -8.765625 3.453125 -8.46875 3.40625 -8.265625 L 2.859375 -6.03125 L 1.671875 -6.03125 C 1.421875 -6.03125 1.28125 -6.03125 1.28125 -5.765625 C 1.28125 -5.59375 1.40625 -5.59375 1.625 -5.59375 L 2.75 -5.59375 L 1.734375 -1.578125 C 1.71875 -1.53125 1.671875 -1.296875 1.671875 -1.109375 C 1.671875 -0.40625 2.125 0.15625 2.859375 0.15625 C 4.265625 0.15625 4.984375 -1.9375 4.984375 -2 Z M 4.984375 -2 "/>
</g>
<g id="glyph-0-1-4f99f423">
<path d="M 4.734375 -0.265625 C 4.734375 -0.4375 4.625 -0.4375 4.34375 -0.4375 C 3.46875 -0.4375 3.46875 -0.53125 3.46875 -0.6875 C 3.46875 -0.6875 3.46875 -0.78125 3.53125 -1 L 5.421875 -8.546875 C 5.53125 -9 5.609375 -9.125 6.578125 -9.125 C 6.875 -9.125 7.015625 -9.125 7.015625 -9.390625 C 7.015625 -9.5625 6.875 -9.5625 6.8125 -9.5625 C 6.265625 -9.5625 5.671875 -9.515625 5.09375 -9.515625 C 4.515625 -9.515625 3.921875 -9.5625 3.34375 -9.5625 C 3.25 -9.5625 3.078125 -9.5625 3.078125 -9.3125 C 3.078125 -9.125 3.171875 -9.125 3.453125 -9.125 C 3.9375 -9.125 4.34375 -9.125 4.34375 -8.890625 C 4.34375 -8.84375 4.3125 -8.671875 4.296875 -8.625 L 2.390625 -1.015625 C 2.28125 -0.546875 2.15625 -0.4375 1.21875 -0.4375 C 0.921875 -0.4375 0.796875 -0.4375 0.796875 -0.1875 C 0.796875 -0.03125 0.890625 0 1 0 C 1.546875 0 2.140625 -0.046875 2.71875 -0.046875 C 3.296875 -0.046875 3.890625 0 4.453125 0 C 4.546875 0 4.734375 0 4.734375 -0.265625 Z M 4.734375 -0.265625 "/>
</g>
<g id="glyph-1-0-4f99f423">
<path d="M 6.234375 -10.21875 C 6.234375 -10.375 6.109375 -10.5 5.953125 -10.5 C 5.828125 -10.5 5.71875 -10.4375 5.6875 -10.3125 L 0.796875 3.125 C 0.78125 3.15625 0.78125 3.1875 0.78125 3.21875 C 0.78125 3.375 0.90625 3.5 1.0625 3.5 C 1.1875 3.5 1.28125 3.4375 1.328125 3.3125 L 6.21875 -10.125 C 6.234375 -10.15625 6.234375 -10.1875 6.234375 -10.21875 Z M 6.234375 -10.21875 "/>
</g>
<g id="glyph-1-1-4f99f423">
<path d="M 10.984375 -0.109375 C 10.984375 -0.109375 10.984375 -0.15625 10.921875 -0.28125 L 6.1875 -9.765625 C 6.09375 -9.953125 6.0625 -10.03125 5.828125 -10.03125 C 5.59375 -10.03125 5.5625 -9.953125 5.453125 -9.765625 L 0.734375 -0.28125 C 0.65625 -0.15625 0.65625 -0.109375 0.65625 -0.109375 C 0.65625 0 0.734375 0 0.96875 0 L 10.6875 0 C 10.90625 0 10.984375 0 10.984375 -0.109375 Z M 9.140625 -1.0625 L 1.59375 -1.0625 L 5.375 -8.625 Z M 9.140625 -1.0625 "/>
</g>
<g id="glyph-1-2-4f99f423">
<path d="M 4.703125 3.21875 C 4.703125 3.171875 4.703125 3.15625 4.6875 3.125 L 2.109375 -3.5 L 4.6875 -10.125 C 4.703125 -10.15625 4.703125 -10.171875 4.703125 -10.21875 C 4.703125 -10.375 4.578125 -10.5 4.421875 -10.5 C 4.3125 -10.5 4.203125 -10.4375 4.15625 -10.3125 L 1.546875 -3.59375 C 1.546875 -3.5625 1.546875 -3.546875 1.546875 -3.5 C 1.546875 -3.453125 1.546875 -3.4375 1.546875 -3.40625 L 4.15625 3.3125 C 4.203125 3.4375 4.3125 3.5 4.421875 3.5 C 4.578125 3.5 4.703125 3.375 4.703125 3.21875 Z M 4.703125 3.21875 "/>
</g>
<g id="glyph-1-3-4f99f423">
<path d="M 4.640625 3.328125 C 4.640625 3.296875 4.625 3.25 4.59375 3.21875 C 3.140625 2.125 2.171875 -0.671875 2.171875 -2.90625 L 2.171875 -4.09375 C 2.171875 -6.328125 3.140625 -9.125 4.59375 -10.21875 C 4.625 -10.25 4.640625 -10.296875 4.640625 -10.328125 C 4.640625 -10.40625 4.578125 -10.46875 4.515625 -10.46875 C 4.484375 -10.46875 4.453125 -10.453125 4.421875 -10.4375 C 2.890625 -9.28125 1.40625 -6.484375 1.40625 -4.09375 L 1.40625 -2.90625 C 1.40625 -0.515625 2.890625 2.28125 4.421875 3.4375 C 4.453125 3.453125 4.484375 3.46875 4.515625 3.46875 C 4.578125 3.46875 4.640625 3.40625 4.640625 3.328125 Z M 4.640625 3.328125 "/>
</g>
<g id="glyph-1-4-4f99f423">
<path d="M 4.03125 -2.90625 L 4.03125 -4.09375 C 4.03125 -6.484375 2.5625 -9.28125 1.015625 -10.4375 C 1 -10.453125 0.96875 -10.46875 0.9375 -10.46875 C 0.875 -10.46875 0.796875 -10.40625 0.796875 -10.328125 C 0.796875 -10.296875 0.828125 -10.25 0.859375 -10.21875 C 2.3125 -9.125 3.28125 -6.328125 3.28125 -4.09375 L 3.28125 -2.90625 C 3.28125 -0.671875 2.3125 2.125 0.859375 3.21875 C 0.828125 3.25 0.796875 3.296875 0.796875 3.328125 C 0.796875 3.40625 0.875 3.46875 0.9375 3.46875 C 0.96875 3.46875 1 3.453125 1.015625 3.4375 C 2.5625 2.28125 4.03125 -0.515625 4.03125 -2.90625 Z M 4.03125 -2.90625 "/>
</g>
<g id="glyph-1-5-4f99f423">
<path d="M 3.890625 -3.59375 L 1.28125 -10.3125 C 1.25 -10.4375 1.140625 -10.5 1.015625 -10.5 C 0.875 -10.5 0.734375 -10.375 0.734375 -10.21875 C 0.734375 -10.171875 0.734375 -10.15625 0.75 -10.125 L 3.328125 -3.5 L 0.75 3.125 C 0.734375 3.15625 0.734375 3.171875 0.734375 3.21875 C 0.734375 3.375 0.875 3.5 1.015625 3.5 C 1.140625 3.5 1.25 3.4375 1.28125 3.3125 L 3.890625 -3.40625 C 3.90625 -3.4375 3.90625 -3.453125 3.90625 -3.5 C 3.90625 -3.546875 3.90625 -3.5625 3.890625 -3.59375 Z M 3.890625 -3.59375 "/>
</g>
<g id="glyph-2-0-4f99f423">
<path d="M 7.09375 -4.78125 C 7.09375 -1.515625 5.953125 0.203125 3.84375 0.203125 C 1.71875 0.203125 0.609375 -1.515625 0.609375 -4.859375 C 0.609375 -8.1875 1.703125 -9.921875 3.84375 -9.921875 C 6 -9.921875 7.09375 -8.21875 7.09375 -4.78125 Z M 5.84375 -4.890625 C 5.84375 -7.546875 5.1875 -8.828125 3.84375 -8.828125 C 2.515625 -8.828125 1.859375 -7.5625 1.859375 -4.84375 C 1.859375 -2.125 2.515625 -0.8125 3.828125 -0.8125 C 5.1875 -0.8125 5.84375 -2.078125 5.84375 -4.890625 Z M 5.84375 -4.890625 "/>
</g>
<g id="glyph-3-0-4f99f423">
<path d="M 4.859375 0 C 4.859375 0 3.625 0 3.625 0 C 3.625 0 3.625 -7.0625 3.625 -7.0625 C 3.625 -7.0625 1.421875 -7.0625 1.421875 -7.0625 C 1.421875 -7.0625 1.421875 -7.953125 1.421875 -7.953125 C 3.328125 -8.1875 3.609375 -8.40625 4.046875 -9.921875 C 4.046875 -9.921875 4.859375 -9.921875 4.859375 -9.921875 C 4.859375 -9.921875 4.859375 0 4.859375 0 Z M 4.859375 0 "/>
</g>
<g id="glyph-3-1-4f99f423">
<path d="M 7.28125 -2.375 C 7.28125 -2.375 5.8125 -2.375 5.8125 -2.375 C 5.8125 -2.375 5.8125 0 5.8125 0 C 5.8125 0 4.578125 0 4.578125 0 C 4.578125 0 4.578125 -2.375 4.578125 -2.375 C 4.578125 -2.375 0.390625 -2.375 0.390625 -2.375 C 0.390625 -2.375 0.390625 -3.6875 0.390625 -3.6875 C 0.390625 -3.6875 4.90625 -9.921875 4.90625 -9.921875 C 4.90625 -9.921875 5.8125 -9.921875 5.8125 -9.921875 C 5.8125 -9.921875 5.8125 -3.484375 5.8125 -3.484375 C 5.8125 -3.484375 7.28125 -3.484375 7.28125 -3.484375 C 7.28125 -3.484375 7.28125 -2.375 7.28125 -2.375 Z M 4.578125 -3.484375 C 4.578125 -3.484375 4.578125 -7.828125 4.578125 -7.828125 C 4.578125 -7.828125 1.46875 -3.484375 1.46875 -3.484375 C 1.46875 -3.484375 4.578125 -3.484375 4.578125 -3.484375 Z M 4.578125 -3.484375 "/>
</g>
<g id="glyph-3-2-4f99f423">
<path d="M 7.09375 -4.78125 C 7.09375 -1.515625 5.953125 0.203125 3.84375 0.203125 C 1.71875 0.203125 0.609375 -1.515625 0.609375 -4.859375 C 0.609375 -8.1875 1.703125 -9.921875 3.84375 -9.921875 C 6 -9.921875 7.09375 -8.21875 7.09375 -4.78125 Z M 5.84375 -4.890625 C 5.84375 -7.546875 5.1875 -8.828125 3.84375 -8.828125 C 2.515625 -8.828125 1.859375 -7.5625 1.859375 -4.84375 C 1.859375 -2.125 2.515625 -0.8125 3.828125 -0.8125 C 5.1875 -0.8125 5.84375 -2.078125 5.84375 -4.890625 Z M 5.84375 -4.890625 "/>
</g>
<g id="glyph-3-3-4f99f423">
<path d="M 7.1875 -3.078125 C 7.1875 -1.140625 5.828125 0.203125 3.9375 0.203125 C 1.671875 0.203125 0.609375 -1.421875 0.609375 -4.515625 C 0.609375 -7.984375 1.84375 -9.921875 4.15625 -9.921875 C 5.671875 -9.921875 6.734375 -8.953125 6.96875 -7.34375 C 6.96875 -7.34375 5.734375 -7.34375 5.734375 -7.34375 C 5.546875 -8.28125 4.9375 -8.828125 4.078125 -8.828125 C 2.65625 -8.828125 1.875 -7.484375 1.859375 -5.0625 C 2.390625 -5.796875 3.15625 -6.171875 4.140625 -6.171875 C 5.921875 -6.171875 7.1875 -4.921875 7.1875 -3.078125 Z M 5.921875 -2.984375 C 5.921875 -4.3125 5.1875 -5.078125 3.984375 -5.078125 C 2.765625 -5.078125 1.9375 -4.28125 1.9375 -3.046875 C 1.9375 -1.78125 2.796875 -0.875 3.953125 -0.875 C 5.078125 -0.875 5.921875 -1.734375 5.921875 -2.984375 Z M 5.921875 -2.984375 "/>
</g>
<g id="glyph-4-0-4f99f423">
<path d="M 7.15625 -7.015625 C 7.15625 -5.796875 6.4375 -4.765625 5.046875 -4.015625 C 5.046875 -4.015625 3.65625 -3.265625 3.65625 -3.265625 C 2.4375 -2.546875 1.984375 -2.03125 1.859375 -1.21875 C 1.859375 -1.21875 7.078125 -1.21875 7.078125 -1.21875 C 7.078125 -1.21875 7.078125 0 7.078125 0 C 7.078125 0 0.46875 0 0.46875 0 C 0.59375 -2.1875 1.1875 -3.125 3.265625 -4.296875 C 3.265625 -4.296875 4.546875 -5.03125 4.546875 -5.03125 C 5.4375 -5.53125 5.890625 -6.203125 5.890625 -6.984375 C 5.890625 -8.046875 5.046875 -8.84375 3.9375 -8.84375 C 2.71875 -8.84375 2.03125 -8.140625 1.9375 -6.484375 C 1.9375 -6.484375 0.703125 -6.484375 0.703125 -6.484375 C 0.765625 -8.890625 1.953125 -9.921875 3.96875 -9.921875 C 5.859375 -9.921875 7.15625 -8.6875 7.15625 -7.015625 Z M 7.15625 -7.015625 "/>
</g>
<g id="glyph-4-1-4f99f423">
<path d="M 7.09375 -4.78125 C 7.09375 -1.515625 5.953125 0.203125 3.84375 0.203125 C 1.71875 0.203125 0.609375 -1.515625 0.609375 -4.859375 C 0.609375 -8.1875 1.703125 -9.921875 3.84375 -9.921875 C 6 -9.921875 7.09375 -8.21875 7.09375 -4.78125 Z M 5.84375 -4.890625 C 5.84375 -7.546875 5.1875 -8.828125 3.84375 -8.828125 C 2.515625 -8.828125 1.859375 -7.5625 1.859375 -4.84375 C 1.859375 -2.125 2.515625 -0.8125 3.828125 -0.8125 C 5.1875 -0.8125 5.84375 -2.078125 5.84375 -4.890625 Z M 5.84375 -4.890625 "/>
</g>
<g id="glyph-4-2-4f99f423">
<path d="M 7.1875 -3.296875 C 7.1875 -1.1875 5.78125 0.203125 3.78125 0.203125 C 2.015625 0.203125 0.890625 -0.578125 0.484375 -2.546875 C 0.484375 -2.546875 1.71875 -2.546875 1.71875 -2.546875 C 2.015625 -1.421875 2.671875 -0.875 3.75 -0.875 C 5.09375 -0.875 5.921875 -1.6875 5.921875 -3.125 C 5.921875 -4.59375 5.078125 -5.453125 3.75 -5.453125 C 2.984375 -5.453125 2.5 -5.203125 1.9375 -4.515625 C 1.9375 -4.515625 0.796875 -4.515625 0.796875 -4.515625 C 0.796875 -4.515625 1.546875 -9.71875 1.546875 -9.71875 C 1.546875 -9.71875 6.65625 -9.71875 6.65625 -9.71875 C 6.65625 -9.71875 6.65625 -8.5 6.65625 -8.5 C 6.65625 -8.5 2.53125 -8.5 2.53125 -8.5 C 2.53125 -8.5 2.140625 -5.9375 2.140625 -5.9375 C 2.71875 -6.359375 3.28125 -6.53125 3.96875 -6.53125 C 5.875 -6.53125 7.1875 -5.25 7.1875 -3.296875 Z M 7.1875 -3.296875 "/>
</g>
<g id="glyph-5-0-4f99f423">
<path d="M 7.09375 -4.78125 C 7.09375 -1.515625 5.953125 0.203125 3.84375 0.203125 C 1.71875 0.203125 0.609375 -1.515625 0.609375 -4.859375 C 0.609375 -8.1875 1.703125 -9.921875 3.84375 -9.921875 C 6 -9.921875 7.09375 -8.21875 7.09375 -4.78125 Z M 5.84375 -4.890625 C 5.84375 -7.546875 5.1875 -8.828125 3.84375 -8.828125 C 2.515625 -8.828125 1.859375 -7.5625 1.859375 -4.84375 C 1.859375 -2.125 2.515625 -0.8125 3.828125 -0.8125 C 5.1875 -0.8125 5.84375 -2.078125 5.84375 -4.890625 Z M 5.84375 -4.890625 "/>
</g>
<g id="glyph-5-1-4f99f423">
<path d="M 7.078125 -2.890625 C 7.078125 -1.015625 5.765625 0.203125 3.71875 0.203125 C 1.6875 0.203125 0.609375 -0.78125 0.453125 -3 C 0.453125 -3 1.6875 -3 1.6875 -3 C 1.765625 -1.546875 2.421875 -0.875 3.765625 -0.875 C 5.046875 -0.875 5.828125 -1.625 5.828125 -2.875 C 5.828125 -3.96875 5.125 -4.625 3.765625 -4.625 C 3.765625 -4.625 3.09375 -4.625 3.09375 -4.625 C 3.09375 -4.625 3.09375 -5.65625 3.09375 -5.65625 C 5.0625 -5.65625 5.53125 -6.09375 5.53125 -7.15625 C 5.53125 -8.203125 4.875 -8.84375 3.78125 -8.84375 C 2.515625 -8.84375 1.921875 -8.1875 1.890625 -6.71875 C 1.890625 -6.71875 0.65625 -6.71875 0.65625 -6.71875 C 0.703125 -8.828125 1.765625 -9.921875 3.765625 -9.921875 C 5.65625 -9.921875 6.796875 -8.90625 6.796875 -7.203125 C 6.796875 -6.203125 6.328125 -5.5625 5.40625 -5.1875 C 6.59375 -4.78125 7.078125 -4.09375 7.078125 -2.890625 Z M 7.078125 -2.890625 "/>
</g>
<g id="glyph-6-0-4f99f423">
<path d="M 7.09375 -4.78125 C 7.09375 -1.515625 5.953125 0.203125 3.84375 0.203125 C 1.71875 0.203125 0.609375 -1.515625 0.609375 -4.859375 C 0.609375 -8.1875 1.703125 -9.921875 3.84375 -9.921875 C 6 -9.921875 7.09375 -8.21875 7.09375 -4.78125 Z M 5.84375 -4.890625 C 5.84375 -7.546875 5.1875 -8.828125 3.84375 -8.828125 C 2.515625 -8.828125 1.859375 -7.5625 1.859375 -4.84375 C 1.859375 -2.125 2.515625 -0.8125 3.828125 -0.8125 C 5.1875 -0.8125 5.84375 -2.078125 5.84375 -4.890625 Z M 5.84375 -4.890625 "/>
</g>
<g id="glyph-7-0-4f99f423">
<path d="M -0.265625 -4.734375 C -0.4375 -4.734375 -0.4375 -4.625 -0.4375 -4.34375 C -0.4375 -3.46875 -0.53125 -3.46875 -0.6875 -3.46875 C -0.6875 -3.46875 -0.78125 -3.46875 -1 -3.53125 L -8.546875 -5.421875 C -9 -5.53125 -9.125 -5.609375 -9.125 -6.578125 C -9.125 -6.875 -9.125 -7.015625 -9.390625 -7.015625 C -9.5625 -7.015625 -9.5625 -6.875 -9.5625 -6.8125 C -9.5625 -6.265625 -9.515625 -5.671875 -9.515625 -5.09375 C -9.515625 -4.515625 -9.5625 -3.921875 -9.5625 -3.34375 C -9.5625 -3.25 -9.5625 -3.078125 -9.3125 -3.078125 C -9.125 -3.078125 -9.125 -3.171875 -9.125 -3.453125 C -9.125 -3.9375 -9.125 -4.34375 -8.890625 -4.34375 C -8.84375 -4.34375 -8.671875 -4.3125 -8.625 -4.296875 L -1.015625 -2.390625 C -0.546875 -2.28125 -0.4375 -2.15625 -0.4375 -1.21875 C -0.4375 -0.921875 -0.4375 -0.796875 -0.1875 -0.796875 C -0.03125 -0.796875 0 -0.890625 0 -1 C 0 -1.546875 -0.046875 -2.140625 -0.046875 -2.71875 C -0.046875 -3.296875 0 -3.890625 0 -4.453125 C 0 -4.546875 0 -4.734375 -0.265625 -4.734375 Z M -0.265625 -4.734375 "/>
</g>
<g id="glyph-8-0-4f99f423">
<path d="M 3.328125 -4.640625 C 3.296875 -4.640625 3.25 -4.625 3.21875 -4.59375 C 2.125 -3.140625 -0.671875 -2.171875 -2.90625 -2.171875 L -4.09375 -2.171875 C -6.328125 -2.171875 -9.125 -3.140625 -10.21875 -4.59375 C -10.25 -4.625 -10.296875 -4.640625 -10.328125 -4.640625 C -10.40625 -4.640625 -10.46875 -4.578125 -10.46875 -4.515625 C -10.46875 -4.484375 -10.453125 -4.453125 -10.4375 -4.421875 C -9.28125 -2.890625 -6.484375 -1.40625 -4.09375 -1.40625 L -2.90625 -1.40625 C -0.515625 -1.40625 2.28125 -2.890625 3.4375 -4.421875 C 3.453125 -4.453125 3.46875 -4.484375 3.46875 -4.515625 C 3.46875 -4.578125 3.40625 -4.640625 3.328125 -4.640625 Z M 3.328125 -4.640625 "/>
</g>
<g id="glyph-8-1-4f99f423">
<path d="M -2.90625 -4.03125 L -4.09375 -4.03125 C -6.484375 -4.03125 -9.28125 -2.5625 -10.4375 -1.015625 C -10.453125 -1 -10.46875 -0.96875 -10.46875 -0.9375 C -10.46875 -0.875 -10.40625 -0.796875 -10.328125 -0.796875 C -10.296875 -0.796875 -10.25 -0.828125 -10.21875 -0.859375 C -9.125 -2.3125 -6.328125 -3.28125 -4.09375 -3.28125 L -2.90625 -3.28125 C -0.671875 -3.28125 2.125 -2.3125 3.21875 -0.859375 C 3.25 -0.828125 3.296875 -0.796875 3.328125 -0.796875 C 3.40625 -0.796875 3.46875 -0.875 3.46875 -0.9375 C 3.46875 -0.96875 3.453125 -1 3.4375 -1.015625 C 2.28125 -2.5625 -0.515625 -4.03125 -2.90625 -4.03125 Z M -2.90625 -4.03125 "/>
</g>
<g id="glyph-9-0-4f99f423">
<path d="M -2 -4.984375 C -2.140625 -4.984375 -2.140625 -4.875 -2.140625 -4.78125 C -2.140625 -4.609375 -2.125 -4.609375 -1.875 -4.5 C -1.203125 -4.234375 -0.15625 -3.6875 -0.15625 -2.890625 C -0.15625 -2.5 -0.5 -2.5 -0.734375 -2.5 C -0.828125 -2.5 -1.046875 -2.5 -1.4375 -2.609375 L -5.59375 -3.640625 L -5.59375 -4.828125 C -5.59375 -5.0625 -5.59375 -5.21875 -5.859375 -5.21875 C -6.03125 -5.21875 -6.03125 -5.09375 -6.03125 -4.875 L -6.03125 -3.75 L -8.109375 -4.265625 C -8.296875 -4.328125 -8.328125 -4.328125 -8.40625 -4.328125 C -8.6875 -4.328125 -8.765625 -4.09375 -8.765625 -3.953125 C -8.765625 -3.59375 -8.46875 -3.453125 -8.265625 -3.40625 L -6.03125 -2.859375 L -6.03125 -1.671875 C -6.03125 -1.421875 -6.03125 -1.28125 -5.765625 -1.28125 C -5.59375 -1.28125 -5.59375 -1.40625 -5.59375 -1.625 L -5.59375 -2.75 L -1.578125 -1.734375 C -1.53125 -1.71875 -1.296875 -1.671875 -1.109375 -1.671875 C -0.40625 -1.671875 0.15625 -2.125 0.15625 -2.859375 C 0.15625 -4.265625 -1.9375 -4.984375 -2 -4.984375 Z M -2 -4.984375 "/>
</g>
<g id="glyph-10-0-4f99f423">
<path d="M -2.4375 -6.28125 L -2.4375 -5.9375 C -2.015625 -5.859375 -1.40625 -5.765625 -1.1875 -5.625 C -1.078125 -5.53125 -1.078125 -4.609375 -1.078125 -4.296875 L -1.078125 -1.78125 L -2.515625 -3.265625 C -4.453125 -5.453125 -5.203125 -6.28125 -6.609375 -6.28125 C -8.203125 -6.28125 -9.328125 -5.03125 -9.328125 -3.3125 C -9.328125 -1.734375 -8.03125 -0.703125 -6.796875 -0.703125 C -6 -0.703125 -6 -1.40625 -6 -1.4375 C -6 -1.6875 -6.171875 -2.171875 -6.75 -2.171875 C -7.109375 -2.171875 -7.46875 -1.921875 -7.46875 -1.421875 C -7.46875 -1.3125 -7.46875 -1.28125 -7.46875 -1.25 C -8.375 -1.5625 -8.890625 -2.328125 -8.890625 -3.140625 C -8.890625 -4.40625 -7.75 -5.015625 -6.609375 -5.015625 C -5.484375 -5.015625 -4.375 -4.3125 -3.515625 -3.546875 L -0.515625 -0.859375 C -0.359375 -0.703125 -0.34375 -0.703125 0 -0.703125 L 0 -5.890625 Z M -2.4375 -6.28125 "/>
</g>
<g id="glyph-11-0-4f99f423">
<path d="M -5.703125 -7.9375 C -6.03125 -7.9375 -6.03125 -7.640625 -6.03125 -7.375 L -6.03125 -2.6875 C -6.03125 -2.375 -6.03125 -1.84375 -5.375 -1.234375 C -4.828125 -0.734375 -4.1875 -0.375 -4.109375 -0.375 C -4.109375 -0.375 -3.96875 -0.375 -3.96875 -0.546875 C -3.96875 -0.65625 -4.03125 -0.6875 -4.140625 -0.765625 C -5.21875 -1.453125 -5.21875 -2.265625 -5.21875 -2.546875 L -5.21875 -3.34375 C -3.53125 -2.890625 -1.828125 -2.140625 -0.5625 -1.546875 C -0.34375 -1.4375 -0.328125 -1.4375 -0.21875 -1.4375 C 0.046875 -1.4375 0.15625 -1.671875 0.15625 -1.84375 C 0.15625 -2.265625 -0.234375 -2.375 -0.75 -2.546875 C -1.40625 -2.75 -1.421875 -2.75 -2.125 -2.921875 L -5.21875 -3.703125 L -5.21875 -5.296875 C -3.15625 -4.828125 -2.546875 -4.703125 -1.609375 -4.703125 C -1.40625 -4.703125 -1.015625 -4.703125 -0.546875 -4.8125 C 0.0625 -4.953125 0.15625 -5.109375 0.15625 -5.3125 C 0.15625 -5.59375 -0.09375 -5.890625 -0.375 -5.890625 C -0.46875 -5.890625 -0.484375 -5.890625 -0.6875 -5.8125 C -1.6875 -5.40625 -2.609375 -5.40625 -3 -5.40625 C -3.734375 -5.40625 -4.5 -5.5 -5.21875 -5.65625 L -5.21875 -7.25 C -5.21875 -7.4375 -5.21875 -7.9375 -5.703125 -7.9375 Z M -5.703125 -7.9375 "/>
</g>
<g id="glyph-12-0-4f99f423">
<path d="M -1.453125 -6.546875 C -1.53125 -6.546875 -1.6875 -6.4375 -1.6875 -6.328125 C -1.6875 -6.265625 -1.671875 -6.265625 -1.53125 -6.140625 C -0.203125 -5.109375 -0.15625 -3.859375 -0.15625 -3.625 C -0.15625 -2.71875 -1.140625 -2.5625 -1.6875 -2.5625 C -2.21875 -2.5625 -2.859375 -2.703125 -3.234375 -2.796875 L -3.234375 -3.34375 C -3.234375 -3.765625 -3.28125 -4.703125 -3.546875 -5.375 C -3.984375 -6.484375 -4.90625 -6.484375 -5 -6.484375 C -5.640625 -6.484375 -6.1875 -5.96875 -6.1875 -5.0625 C -6.1875 -3.59375 -4.78125 -1.59375 -2.296875 -1.59375 C -1.03125 -1.59375 0.15625 -2.265625 0.15625 -3.59375 C 0.15625 -5.390625 -1.25 -6.546875 -1.453125 -6.546875 Z M -5.03125 -5.953125 C -3.546875 -5.953125 -3.546875 -3.640625 -3.546875 -3.171875 L -3.546875 -2.890625 C -5.84375 -3.484375 -5.875 -4.921875 -5.875 -5.0625 C -5.875 -5.625 -5.5 -5.953125 -5.03125 -5.953125 Z M -5.03125 -5.953125 "/>
</g>
<g id="glyph-13-0-4f99f423">
<path d="M -0.109375 -10.984375 C -0.109375 -10.984375 -0.15625 -10.984375 -0.28125 -10.921875 L -9.765625 -6.1875 C -9.953125 -6.09375 -10.03125 -6.0625 -10.03125 -5.828125 C -10.03125 -5.59375 -9.953125 -5.5625 -9.765625 -5.453125 L -0.28125 -0.734375 C -0.15625 -0.65625 -0.109375 -0.65625 -0.109375 -0.65625 C 0 -0.65625 0 -0.734375 0 -0.96875 L 0 -10.6875 C 0 -10.90625 0 -10.984375 -0.109375 -10.984375 Z M -1.0625 -9.140625 L -1.0625 -1.59375 L -8.625 -5.375 Z M -1.0625 -9.140625 "/>
</g>
<g id="glyph-14-0-4f99f423">
<path d="M 7.09375 -4.78125 C 7.09375 -1.515625 5.953125 0.203125 3.84375 0.203125 C 1.71875 0.203125 0.609375 -1.515625 0.609375 -4.859375 C 0.609375 -8.1875 1.703125 -9.921875 3.84375 -9.921875 C 6 -9.921875 7.09375 -8.21875 7.09375 -4.78125 Z M 5.84375 -4.890625 C 5.84375 -7.546875 5.1875 -8.828125 3.84375 -8.828125 C 2.515625 -8.828125 1.859375 -7.5625 1.859375 -4.84375 C 1.859375 -2.125 2.515625 -0.8125 3.828125 -0.8125 C 5.1875 -0.8125 5.84375 -2.078125 5.84375 -4.890625 Z M 5.84375 -4.890625 "/>
</g>
<g id="glyph-15-0-4f99f423">
<path d="M 2.671875 0 C 2.671875 0 1.21875 0 1.21875 0 C 1.21875 0 1.21875 -1.453125 1.21875 -1.453125 C 1.21875 -1.453125 2.671875 -1.453125 2.671875 -1.453125 C 2.671875 -1.453125 2.671875 0 2.671875 0 Z M 2.671875 0 "/>
</g>
<g id="glyph-16-0-4f99f423">
<path d="M 7.09375 -4.78125 C 7.09375 -1.515625 5.953125 0.203125 3.84375 0.203125 C 1.71875 0.203125 0.609375 -1.515625 0.609375 -4.859375 C 0.609375 -8.1875 1.703125 -9.921875 3.84375 -9.921875 C 6 -9.921875 7.09375 -8.21875 7.09375 -4.78125 Z M 5.84375 -4.890625 C 5.84375 -7.546875 5.1875 -8.828125 3.84375 -8.828125 C 2.515625 -8.828125 1.859375 -7.5625 1.859375 -4.84375 C 1.859375 -2.125 2.515625 -0.8125 3.828125 -0.8125 C 5.1875 -0.8125 5.84375 -2.078125 5.84375 -4.890625 Z M 5.84375 -4.890625 "/>
</g>
<g id="glyph-16-1-4f99f423">
<path d="M 7.1875 -3.296875 C 7.1875 -1.1875 5.78125 0.203125 3.78125 0.203125 C 2.015625 0.203125 0.890625 -0.578125 0.484375 -2.546875 C 0.484375 -2.546875 1.71875 -2.546875 1.71875 -2.546875 C 2.015625 -1.421875 2.671875 -0.875 3.75 -0.875 C 5.09375 -0.875 5.921875 -1.6875 5.921875 -3.125 C 5.921875 -4.59375 5.078125 -5.453125 3.75 -5.453125 C 2.984375 -5.453125 2.5 -5.203125 1.9375 -4.515625 C 1.9375 -4.515625 0.796875 -4.515625 0.796875 -4.515625 C 0.796875 -4.515625 1.546875 -9.71875 1.546875 -9.71875 C 1.546875 -9.71875 6.65625 -9.71875 6.65625 -9.71875 C 6.65625 -9.71875 6.65625 -8.5 6.65625 -8.5 C 6.65625 -8.5 2.53125 -8.5 2.53125 -8.5 C 2.53125 -8.5 2.140625 -5.9375 2.140625 -5.9375 C 2.71875 -6.359375 3.28125 -6.53125 3.96875 -6.53125 C 5.875 -6.53125 7.1875 -5.25 7.1875 -3.296875 Z M 7.1875 -3.296875 "/>
</g>
<g id="glyph-17-0-4f99f423">
<path d="M 4.859375 0 C 4.859375 0 3.625 0 3.625 0 C 3.625 0 3.625 -7.0625 3.625 -7.0625 C 3.625 -7.0625 1.421875 -7.0625 1.421875 -7.0625 C 1.421875 -7.0625 1.421875 -7.953125 1.421875 -7.953125 C 3.328125 -8.1875 3.609375 -8.40625 4.046875 -9.921875 C 4.046875 -9.921875 4.859375 -9.921875 4.859375 -9.921875 C 4.859375 -9.921875 4.859375 0 4.859375 0 Z M 4.859375 0 "/>
</g>
<g id="glyph-18-0-4f99f423">
<path d="M 2.671875 0 C 2.671875 0 1.21875 0 1.21875 0 C 1.21875 0 1.21875 -1.453125 1.21875 -1.453125 C 1.21875 -1.453125 2.671875 -1.453125 2.671875 -1.453125 C 2.671875 -1.453125 2.671875 0 2.671875 0 Z M 2.671875 0 "/>
</g>
<g id="glyph-19-0-4f99f423">
<path d="M 7.09375 -4.78125 C 7.09375 -1.515625 5.953125 0.203125 3.84375 0.203125 C 1.71875 0.203125 0.609375 -1.515625 0.609375 -4.859375 C 0.609375 -8.1875 1.703125 -9.921875 3.84375 -9.921875 C 6 -9.921875 7.09375 -8.21875 7.09375 -4.78125 Z M 5.84375 -4.890625 C 5.84375 -7.546875 5.1875 -8.828125 3.84375 -8.828125 C 2.515625 -8.828125 1.859375 -7.5625 1.859375 -4.84375 C 1.859375 -2.125 2.515625 -0.8125 3.828125 -0.8125 C 5.1875 -0.8125 5.84375 -2.078125 5.84375 -4.890625 Z M 5.84375 -4.890625 "/>
</g>
<g id="glyph-20-0-4f99f423">
<path d="M 9.484375 0 C 9.484375 0 7.21875 0 7.21875 0 C 6.953125 -0.484375 6.90625 -0.796875 6.90625 -1.75 C 6.90625 -1.75 6.9375 -2.828125 6.9375 -2.828125 C 6.9375 -3.6875 6.53125 -4.046875 5.625 -4.046875 C 5.625 -4.046875 3.21875 -4.046875 3.21875 -4.046875 C 3.21875 -4.046875 3.21875 0 3.21875 0 C 3.21875 0 1.125 0 1.125 0 C 1.125 0 1.125 -10.203125 1.125 -10.203125 C 1.125 -10.203125 6.59375 -10.203125 6.59375 -10.203125 C 8.40625 -10.203125 9.34375 -9.03125 9.34375 -7.453125 C 9.34375 -6.203125 8.765625 -5.375 7.609375 -4.921875 C 8.921875 -4.375 8.96875 -4.234375 9.03125 -1.21875 C 9.03125 -0.765625 9.15625 -0.5625 9.484375 -0.375 C 9.484375 -0.375 9.484375 0 9.484375 0 Z M 7.234375 -7.15625 C 7.234375 -8.03125 6.90625 -8.453125 5.75 -8.453125 C 5.75 -8.453125 3.21875 -8.453125 3.21875 -8.453125 C 3.21875 -8.453125 3.21875 -5.796875 3.21875 -5.796875 C 3.21875 -5.796875 5.75 -5.796875 5.75 -5.796875 C 6.9375 -5.796875 7.234375 -6.25 7.234375 -7.15625 Z M 7.234375 -7.15625 "/>
</g>
<g id="glyph-20-1-4f99f423">
<path d="M 8.03125 -3.78125 C 8.03125 -1.484375 6.6875 0.125 4.875 0.125 C 3.921875 0.125 3.25 -0.171875 2.765625 -1.015625 C 2.765625 -1.015625 2.765625 3.046875 2.765625 3.046875 C 2.765625 3.046875 0.8125 3.046875 0.8125 3.046875 C 0.8125 3.046875 0.8125 -7.5625 0.8125 -7.5625 C 0.8125 -7.5625 2.765625 -7.5625 2.765625 -7.5625 C 2.765625 -7.5625 2.765625 -6.4375 2.765625 -6.4375 C 3.25 -7.28125 3.921875 -7.6875 4.875 -7.6875 C 6.84375 -7.6875 8.03125 -6.015625 8.03125 -3.78125 Z M 6.078125 -3.75 C 6.078125 -5.1875 5.421875 -6.046875 4.421875 -6.046875 C 3.4375 -6.046875 2.765625 -5.1875 2.765625 -3.78125 C 2.765625 -2.359375 3.4375 -1.515625 4.421875 -1.515625 C 5.390625 -1.515625 6.078125 -2.375 6.078125 -3.75 Z M 6.078125 -3.75 "/>
</g>
<g id="glyph-20-2-4f99f423">
<path d="M 7.96875 -3.71875 C 7.96875 -1.296875 6.53125 0.125 4.234375 0.125 C 1.90625 0.125 0.484375 -1.28125 0.484375 -3.78125 C 0.484375 -6.265625 1.90625 -7.6875 4.21875 -7.6875 C 6.578125 -7.6875 7.96875 -6.28125 7.96875 -3.71875 Z M 6 -3.75 C 6 -5.234375 5.3125 -6.109375 4.234375 -6.109375 C 3.15625 -6.109375 2.453125 -5.21875 2.453125 -3.78125 C 2.453125 -2.34375 3.15625 -1.453125 4.234375 -1.453125 C 5.28125 -1.453125 6 -2.34375 6 -3.75 Z M 6 -3.75 "/>
</g>
<g id="glyph-20-3-4f99f423">
<path d="M 7.640625 0 C 7.640625 0 5.6875 0 5.6875 0 C 5.6875 0 5.6875 -4.65625 5.6875 -4.65625 C 5.6875 -5.5625 5.265625 -6.015625 4.421875 -6.015625 C 3.46875 -6.015625 2.84375 -5.4375 2.84375 -4.53125 C 2.84375 -4.53125 2.84375 0 2.84375 0 C 2.84375 0 0.875 0 0.875 0 C 0.875 0 0.875 -7.5625 0.875 -7.5625 C 0.875 -7.5625 2.84375 -7.5625 2.84375 -7.5625 C 2.84375 -7.5625 2.84375 -6.46875 2.84375 -6.46875 C 3.40625 -7.3125 4.09375 -7.6875 5.109375 -7.6875 C 6.71875 -7.6875 7.640625 -6.734375 7.640625 -5.0625 C 7.640625 -5.0625 7.640625 0 7.640625 0 Z M 7.640625 0 "/>
</g>
<g id="glyph-20-4-4f99f423">
<path d="M 7.28125 -2.234375 C 7.28125 -0.71875 6.109375 0.125 3.96875 0.125 C 1.6875 0.125 0.46875 -0.734375 0.40625 -2.390625 C 0.40625 -2.390625 2.328125 -2.390625 2.328125 -2.390625 C 2.484375 -1.578125 2.96875 -1.40625 3.859375 -1.40625 C 4.78125 -1.40625 5.3125 -1.59375 5.3125 -2.0625 C 5.3125 -2.265625 5.15625 -2.421875 4.65625 -2.578125 C 4.65625 -2.578125 2.328125 -3.296875 2.328125 -3.296875 C 0.921875 -3.734375 0.671875 -4.234375 0.671875 -5.171875 C 0.671875 -6.71875 1.859375 -7.6875 3.78125 -7.6875 C 5.8125 -7.6875 7.046875 -6.71875 7.0625 -5.125 C 7.0625 -5.125 5.1875 -5.125 5.1875 -5.125 C 5.171875 -5.8125 4.703125 -6.140625 3.765625 -6.140625 C 3.078125 -6.140625 2.625 -5.859375 2.625 -5.453125 C 2.625 -5.140625 2.765625 -5.015625 3.3125 -4.859375 C 3.3125 -4.859375 5.796875 -4.140625 5.796875 -4.140625 C 6.796875 -3.84375 7.28125 -3.203125 7.28125 -2.34375 C 7.28125 -2.34375 7.28125 -2.234375 7.28125 -2.234375 Z M 7.28125 -2.234375 "/>
</g>
<g id="glyph-20-5-4f99f423">
</g>
<g id="glyph-20-6-4f99f423">
<path d="M 4.21875 0 C 3.859375 0.015625 3.515625 0.0625 3.078125 0.0625 C 1.796875 0.0625 1.15625 -0.4375 1.15625 -1.625 C 1.15625 -1.625 1.15625 -6.109375 1.15625 -6.109375 C 1.15625 -6.109375 0.203125 -6.109375 0.203125 -6.109375 C 0.203125 -6.109375 0.203125 -7.40625 0.203125 -7.40625 C 0.203125 -7.40625 1.15625 -7.40625 1.15625 -7.40625 C 1.15625 -7.40625 1.15625 -9.4375 1.15625 -9.4375 C 1.15625 -9.4375 3.125 -9.4375 3.125 -9.4375 C 3.125 -9.4375 3.125 -7.40625 3.125 -7.40625 C 3.125 -7.40625 4.21875 -7.40625 4.21875 -7.40625 C 4.21875 -7.40625 4.21875 -6.109375 4.21875 -6.109375 C 4.21875 -6.109375 3.125 -6.109375 3.125 -6.109375 C 3.125 -6.109375 3.125 -2.15625 3.125 -2.15625 C 3.125 -1.484375 3.25 -1.328125 3.765625 -1.328125 C 3.90625 -1.328125 4.015625 -1.34375 4.21875 -1.375 C 4.21875 -1.375 4.21875 0 4.21875 0 Z M 4.21875 0 "/>
</g>
<g id="glyph-20-7-4f99f423">
<path d="M 5.1875 -5.6875 C 4.90625 -5.71875 4.78125 -5.734375 4.5625 -5.734375 C 3.421875 -5.734375 2.84375 -5.171875 2.84375 -4.015625 C 2.84375 -4.015625 2.84375 0 2.84375 0 C 2.84375 0 0.875 0 0.875 0 C 0.875 0 0.875 -7.5625 0.875 -7.5625 C 0.875 -7.5625 2.84375 -7.5625 2.84375 -7.5625 C 2.84375 -7.5625 2.84375 -6.078125 2.84375 -6.078125 C 3.265625 -7.09375 4.046875 -7.6875 4.9375 -7.6875 C 5 -7.6875 5.0625 -7.6875 5.1875 -7.671875 C 5.1875 -7.671875 5.1875 -5.6875 5.1875 -5.6875 Z M 5.1875 -5.6875 "/>
</g>
<g id="glyph-20-8-4f99f423">
<path d="M 11.53125 0 C 11.53125 0 9.578125 0 9.578125 0 C 9.578125 0 9.578125 -5.046875 9.578125 -5.046875 C 9.578125 -5.640625 9.171875 -6.015625 8.515625 -6.015625 C 7.671875 -6.015625 7.171875 -5.453125 7.171875 -4.53125 C 7.171875 -4.53125 7.171875 0 7.171875 0 C 7.171875 0 5.203125 0 5.203125 0 C 5.203125 0 5.203125 -5.046875 5.203125 -5.046875 C 5.203125 -5.640625 4.796875 -6.015625 4.140625 -6.015625 C 3.296875 -6.015625 2.796875 -5.453125 2.796875 -4.53125 C 2.796875 -4.53125 2.796875 0 2.796875 0 C 2.796875 0 0.84375 0 0.84375 0 C 0.84375 0 0.84375 -7.5625 0.84375 -7.5625 C 0.84375 -7.5625 2.78125 -7.5625 2.78125 -7.5625 C 2.78125 -7.5625 2.78125 -6.625 2.78125 -6.625 C 3.4375 -7.390625 3.984375 -7.6875 4.859375 -7.6875 C 5.796875 -7.6875 6.546875 -7.28125 6.921875 -6.5625 C 7.5 -7.34375 8.171875 -7.6875 9.125 -7.6875 C 10.640625 -7.6875 11.53125 -6.8125 11.53125 -5.34375 C 11.53125 -5.34375 11.53125 0 11.53125 0 Z M 11.53125 0 "/>
</g>
<g id="glyph-21-0-4f99f423">
<path d="M 7.34375 -3.5 C 7.34375 -3.5 7.34375 -3.265625 7.34375 -3.265625 C 7.34375 -3.265625 2.265625 -3.265625 2.265625 -3.265625 C 2.328125 -1.796875 2.90625 -1.375 3.84375 -1.375 C 4.546875 -1.375 5.171875 -1.578125 5.328125 -2.125 C 5.328125 -2.125 7.265625 -2.125 7.265625 -2.125 C 6.828125 -0.640625 5.453125 0.125 3.765625 0.125 C 1.625 0.125 0.3125 -1.265625 0.3125 -3.6875 C 0.3125 -6.21875 1.640625 -7.6875 3.8125 -7.6875 C 6.03125 -7.6875 7.34375 -6.109375 7.34375 -3.5 Z M 5.3125 -4.5625 C 5.203125 -5.640625 4.625 -6.1875 3.78125 -6.1875 C 2.90625 -6.1875 2.421875 -5.609375 2.296875 -4.5625 C 2.296875 -4.5625 5.3125 -4.5625 5.3125 -4.5625 Z M 5.3125 -4.5625 "/>
</g>
<g id="glyph-21-1-4f99f423">
<path d="M 7.34375 0 C 7.34375 0 5.203125 0 5.203125 0 C 5.03125 -0.21875 4.984375 -0.5625 4.984375 -0.953125 C 4.296875 -0.234375 3.53125 0.125 2.6875 0.125 C 1.421875 0.125 0.390625 -0.578125 0.390625 -2.046875 C 0.390625 -3.421875 1.125 -4.0625 2.625 -4.328125 C 2.625 -4.328125 3.40625 -4.46875 3.40625 -4.46875 C 4.375 -4.640625 4.96875 -4.546875 4.96875 -5.34375 C 4.96875 -5.859375 4.59375 -6.109375 3.84375 -6.109375 C 2.875 -6.109375 2.546875 -5.859375 2.453125 -5.0625 C 2.453125 -5.0625 0.5625 -5.0625 0.5625 -5.0625 C 0.6875 -6.8125 1.75 -7.6875 3.796875 -7.6875 C 5.84375 -7.6875 6.890625 -6.90625 6.890625 -5.359375 C 6.890625 -5.359375 6.890625 -1.15625 6.890625 -1.15625 C 6.890625 -0.765625 6.984375 -0.5625 7.34375 -0.234375 C 7.34375 -0.234375 7.34375 0 7.34375 0 Z M 4.96875 -3.234375 C 4.96875 -3.234375 4.96875 -3.5625 4.96875 -3.5625 C 4.75 -3.453125 4.65625 -3.4375 4.140625 -3.328125 C 4.140625 -3.328125 3.46875 -3.203125 3.46875 -3.203125 C 2.65625 -3.046875 2.359375 -2.84375 2.359375 -2.265625 C 2.359375 -1.703125 2.765625 -1.453125 3.421875 -1.453125 C 4.40625 -1.453125 4.96875 -2.09375 4.96875 -3.234375 Z M 4.96875 -3.234375 "/>
</g>
<g id="glyph-22-0-4f99f423">
<path d="M 7.28125 -2.234375 C 7.28125 -0.71875 6.109375 0.125 3.96875 0.125 C 1.6875 0.125 0.46875 -0.734375 0.40625 -2.390625 C 0.40625 -2.390625 2.328125 -2.390625 2.328125 -2.390625 C 2.484375 -1.578125 2.96875 -1.40625 3.859375 -1.40625 C 4.78125 -1.40625 5.3125 -1.59375 5.3125 -2.0625 C 5.3125 -2.265625 5.15625 -2.421875 4.65625 -2.578125 C 4.65625 -2.578125 2.328125 -3.296875 2.328125 -3.296875 C 0.921875 -3.734375 0.671875 -4.234375 0.671875 -5.171875 C 0.671875 -6.71875 1.859375 -7.6875 3.78125 -7.6875 C 5.8125 -7.6875 7.046875 -6.71875 7.0625 -5.125 C 7.0625 -5.125 5.1875 -5.125 5.1875 -5.125 C 5.171875 -5.8125 4.703125 -6.140625 3.765625 -6.140625 C 3.078125 -6.140625 2.625 -5.859375 2.625 -5.453125 C 2.625 -5.140625 2.765625 -5.015625 3.3125 -4.859375 C 3.3125 -4.859375 5.796875 -4.140625 5.796875 -4.140625 C 6.796875 -3.84375 7.28125 -3.203125 7.28125 -2.34375 C 7.28125 -2.34375 7.28125 -2.234375 7.28125 -2.234375 Z M 7.28125 -2.234375 "/>
</g>
<g id="glyph-22-1-4f99f423">
</g>
<g id="glyph-22-2-4f99f423">
<path d="M 7.34375 0 C 7.34375 0 5.203125 0 5.203125 0 C 5.03125 -0.21875 4.984375 -0.5625 4.984375 -0.953125 C 4.296875 -0.234375 3.53125 0.125 2.6875 0.125 C 1.421875 0.125 0.390625 -0.578125 0.390625 -2.046875 C 0.390625 -3.421875 1.125 -4.0625 2.625 -4.328125 C 2.625 -4.328125 3.40625 -4.46875 3.40625 -4.46875 C 4.375 -4.640625 4.96875 -4.546875 4.96875 -5.34375 C 4.96875 -5.859375 4.59375 -6.109375 3.84375 -6.109375 C 2.875 -6.109375 2.546875 -5.859375 2.453125 -5.0625 C 2.453125 -5.0625 0.5625 -5.0625 0.5625 -5.0625 C 0.6875 -6.8125 1.75 -7.6875 3.796875 -7.6875 C 5.84375 -7.6875 6.890625 -6.90625 6.890625 -5.359375 C 6.890625 -5.359375 6.890625 -1.15625 6.890625 -1.15625 C 6.890625 -0.765625 6.984375 -0.5625 7.34375 -0.234375 C 7.34375 -0.234375 7.34375 0 7.34375 0 Z M 4.96875 -3.234375 C 4.96875 -3.234375 4.96875 -3.5625 4.96875 -3.5625 C 4.75 -3.453125 4.65625 -3.4375 4.140625 -3.328125 C 4.140625 -3.328125 3.46875 -3.203125 3.46875 -3.203125 C 2.65625 -3.046875 2.359375 -2.84375 2.359375 -2.265625 C 2.359375 -1.703125 2.765625 -1.453125 3.421875 -1.453125 C 4.40625 -1.453125 4.96875 -2.09375 4.96875 -3.234375 Z M 4.96875 -3.234375 "/>
</g>
<g id="glyph-23-0-4f99f423">
<path d="M 7.46875 0 C 7.46875 0 1.125 0 1.125 0 C 1.125 0 1.125 -10.203125 1.125 -10.203125 C 1.125 -10.203125 2.421875 -10.203125 2.421875 -10.203125 C 2.421875 -10.203125 2.421875 -1.140625 2.421875 -1.140625 C 2.421875 -1.140625 7.46875 -1.140625 7.46875 -1.140625 C 7.46875 -1.140625 7.46875 0 7.46875 0 Z M 7.46875 0 "/>
</g>
<g id="glyph-23-1-4f99f423">
<path d="M 7.140625 -3.609375 C 7.140625 -1.203125 5.875 0.203125 3.828125 0.203125 C 1.734375 0.203125 0.5 -1.203125 0.5 -3.671875 C 0.5 -6.125 1.75 -7.546875 3.8125 -7.546875 C 5.921875 -7.546875 7.140625 -6.140625 7.140625 -3.609375 Z M 5.921875 -3.625 C 5.921875 -5.453125 5.140625 -6.46875 3.828125 -6.46875 C 2.515625 -6.46875 1.71875 -5.4375 1.71875 -3.671875 C 1.71875 -1.890625 2.515625 -0.875 3.828125 -0.875 C 5.109375 -0.875 5.921875 -1.90625 5.921875 -3.625 Z M 5.921875 -3.625 "/>
</g>
<g id="glyph-23-2-4f99f423">
<path d="M 9.90625 -7.34375 C 9.90625 -7.34375 7.75 0 7.75 0 C 7.75 0 6.421875 0 6.421875 0 C 6.421875 0 4.9375 -5.75 4.9375 -5.75 C 4.9375 -5.75 3.53125 0 3.53125 0 C 3.53125 0 2.21875 0 2.21875 0 C 2.21875 0 0.078125 -7.34375 0.078125 -7.34375 C 0.078125 -7.34375 1.375 -7.34375 1.375 -7.34375 C 1.375 -7.34375 2.875 -1.625 2.875 -1.625 C 2.875 -1.625 4.265625 -7.34375 4.265625 -7.34375 C 4.265625 -7.34375 5.703125 -7.34375 5.703125 -7.34375 C 5.703125 -7.34375 7.140625 -1.625 7.140625 -1.625 C 7.140625 -1.625 8.59375 -7.34375 8.59375 -7.34375 C 8.59375 -7.34375 9.90625 -7.34375 9.90625 -7.34375 Z M 9.90625 -7.34375 "/>
</g>
<g id="glyph-23-3-4f99f423">
</g>
<g id="glyph-23-4-4f99f423">
<path d="M 6.9375 3.046875 C 6.9375 3.046875 5.765625 3.046875 5.765625 3.046875 C 5.765625 3.046875 5.765625 -0.953125 5.765625 -0.953125 C 5.21875 -0.15625 4.515625 0.203125 3.5 0.203125 C 1.5625 0.203125 0.359375 -1.203125 0.359375 -3.578125 C 0.359375 -6.015625 1.625 -7.546875 3.5625 -7.546875 C 4.515625 -7.546875 5.34375 -7.125 5.890625 -6.359375 C 5.890625 -6.359375 5.890625 -7.34375 5.890625 -7.34375 C 5.890625 -7.34375 6.9375 -7.34375 6.9375 -7.34375 C 6.9375 -7.34375 6.9375 3.046875 6.9375 3.046875 Z M 5.765625 -3.625 C 5.765625 -5.328125 4.96875 -6.453125 3.71875 -6.453125 C 2.4375 -6.453125 1.578125 -5.359375 1.578125 -3.671875 C 1.578125 -1.953125 2.4375 -0.875 3.71875 -0.875 C 4.953125 -0.875 5.765625 -1.953125 5.765625 -3.625 Z M 5.765625 -3.625 "/>
</g>
<g id="glyph-23-5-4f99f423">
<path d="M 7.1875 -3.328125 C 7.1875 -3.328125 1.78125 -3.328125 1.78125 -3.328125 C 1.8125 -1.65625 2.71875 -0.875 3.9375 -0.875 C 4.875 -0.875 5.53125 -1.265625 5.859375 -2.21875 C 5.859375 -2.21875 7.03125 -2.21875 7.03125 -2.21875 C 6.734375 -0.734375 5.578125 0.203125 3.890625 0.203125 C 1.828125 0.203125 0.5625 -1.21875 0.5625 -3.625 C 0.5625 -6.03125 1.875 -7.546875 3.921875 -7.546875 C 5.296875 -7.546875 6.40625 -6.8125 6.890625 -5.609375 C 7.09375 -5.0625 7.1875 -4.390625 7.1875 -3.328125 Z M 5.9375 -4.375 C 5.9375 -5.515625 5.046875 -6.46875 3.90625 -6.46875 C 2.734375 -6.46875 1.90625 -5.59375 1.8125 -4.28125 C 1.8125 -4.28125 5.921875 -4.28125 5.921875 -4.28125 C 5.9375 -4.3125 5.9375 -4.375 5.9375 -4.375 Z M 5.9375 -4.375 "/>
</g>
<g id="glyph-23-6-4f99f423">
<path d="M 6.8125 0 C 6.8125 0 5.65625 0 5.65625 0 C 5.65625 0 5.65625 -5.078125 5.65625 -5.078125 C 5.65625 -5.96875 5.0625 -6.53125 4.140625 -6.53125 C 2.953125 -6.53125 2.140625 -5.546875 2.140625 -4.046875 C 2.140625 -4.046875 2.140625 0 2.140625 0 C 2.140625 0 0.984375 0 0.984375 0 C 0.984375 0 0.984375 -7.34375 0.984375 -7.34375 C 0.984375 -7.34375 2.0625 -7.34375 2.0625 -7.34375 C 2.0625 -7.34375 2.0625 -6.109375 2.0625 -6.109375 C 2.703125 -7.125 3.40625 -7.546875 4.5 -7.546875 C 5.90625 -7.546875 6.8125 -6.765625 6.8125 -5.546875 C 6.8125 -5.546875 6.8125 0 6.8125 0 Z M 6.8125 0 "/>
</g>
<g id="glyph-23-7-4f99f423">
<path d="M 6.671875 -2.515625 C 6.53125 -0.84375 5.4375 0.203125 3.6875 0.203125 C 1.6875 0.203125 0.4375 -1.234375 0.4375 -3.59375 C 0.4375 -6.03125 1.71875 -7.546875 3.703125 -7.546875 C 5.328125 -7.546875 6.453125 -6.65625 6.59375 -4.875 C 6.59375 -4.875 5.421875 -4.875 5.421875 -4.875 C 5.28125 -5.890625 4.65625 -6.46875 3.6875 -6.46875 C 2.40625 -6.46875 1.65625 -5.4375 1.65625 -3.59375 C 1.65625 -1.859375 2.421875 -0.875 3.703125 -0.875 C 4.703125 -0.875 5.3125 -1.34375 5.5 -2.515625 C 5.5 -2.515625 6.671875 -2.515625 6.671875 -2.515625 Z M 6.671875 -2.515625 "/>
</g>
<g id="glyph-23-8-4f99f423">
<path d="M 2.140625 0 C 2.140625 0 0.984375 0 0.984375 0 C 0.984375 0 0.984375 -7.34375 0.984375 -7.34375 C 0.984375 -7.34375 2.140625 -7.34375 2.140625 -7.34375 C 2.140625 -7.34375 2.140625 0 2.140625 0 Z M 2.296875 -8.4375 C 2.296875 -8.4375 0.84375 -8.4375 0.84375 -8.4375 C 0.84375 -8.4375 0.84375 -9.890625 0.84375 -9.890625 C 0.84375 -9.890625 2.296875 -9.890625 2.296875 -9.890625 C 2.296875 -9.890625 2.296875 -8.4375 2.296875 -8.4375 Z M 2.296875 -8.4375 "/>
</g>
<g id="glyph-23-9-4f99f423">
<path d="M 6.421875 -2.0625 C 6.421875 -0.640625 5.25 0.203125 3.40625 0.203125 C 1.484375 0.203125 0.53125 -0.546875 0.46875 -2.234375 C 0.46875 -2.234375 1.703125 -2.234375 1.703125 -2.234375 C 1.859375 -1.125 2.453125 -0.875 3.5 -0.875 C 4.515625 -0.875 5.203125 -1.28125 5.203125 -1.953125 C 5.203125 -2.484375 4.890625 -2.734375 4.078125 -2.921875 C 4.078125 -2.921875 2.984375 -3.1875 2.984375 -3.1875 C 1.25 -3.609375 0.65625 -4.15625 0.65625 -5.3125 C 0.65625 -6.65625 1.765625 -7.546875 3.46875 -7.546875 C 5.171875 -7.546875 6.125 -6.734375 6.125 -5.296875 C 6.125 -5.296875 4.90625 -5.296875 4.90625 -5.296875 C 4.875 -6.0625 4.375 -6.46875 3.4375 -6.46875 C 2.484375 -6.46875 1.875 -6.03125 1.875 -5.359375 C 1.875 -4.84375 2.28125 -4.53125 3.234375 -4.3125 C 3.234375 -4.3125 4.359375 -4.046875 4.359375 -4.046875 C 5.8125 -3.703125 6.421875 -3.15625 6.421875 -2.0625 Z M 6.421875 -2.0625 "/>
</g>
<g id="glyph-24-0-4f99f423">
<path d="M 3.609375 -6.390625 C 3.609375 -6.390625 2.390625 -6.390625 2.390625 -6.390625 C 2.390625 -6.390625 2.390625 0 2.390625 0 C 2.390625 0 1.234375 0 1.234375 0 C 1.234375 0 1.234375 -6.390625 1.234375 -6.390625 C 1.234375 -6.390625 0.25 -6.390625 0.25 -6.390625 C 0.25 -6.390625 0.25 -7.34375 0.25 -7.34375 C 0.25 -7.34375 1.234375 -7.34375 1.234375 -7.34375 C 1.234375 -7.34375 1.234375 -8.578125 1.234375 -8.578125 C 1.234375 -9.625 1.875 -10.25 2.953125 -10.25 C 3.1875 -10.25 3.34375 -10.234375 3.609375 -10.171875 C 3.609375 -10.171875 3.609375 -9.21875 3.609375 -9.21875 C 3.34375 -9.21875 3.296875 -9.21875 3.203125 -9.21875 C 2.671875 -9.21875 2.390625 -8.96875 2.390625 -8.484375 C 2.390625 -8.484375 2.390625 -7.34375 2.390625 -7.34375 C 2.390625 -7.34375 3.609375 -7.34375 3.609375 -7.34375 C 3.609375 -7.34375 3.609375 -6.390625 3.609375 -6.390625 Z M 3.609375 -6.390625 "/>
</g>
<g id="glyph-24-1-4f99f423">
<path d="M 4.5 -6.3125 C 2.6875 -6.28125 2.140625 -5.453125 2.140625 -3.8125 C 2.140625 -3.8125 2.140625 0 2.140625 0 C 2.140625 0 0.984375 0 0.984375 0 C 0.984375 0 0.984375 -7.34375 0.984375 -7.34375 C 0.984375 -7.34375 2.046875 -7.34375 2.046875 -7.34375 C 2.046875 -7.34375 2.046875 -6 2.046875 -6 C 2.71875 -7.09375 3.296875 -7.546875 4.046875 -7.546875 C 4.203125 -7.546875 4.296875 -7.53125 4.5 -7.5 C 4.5 -7.5 4.5 -6.3125 4.5 -6.3125 Z M 4.5 -6.3125 "/>
</g>
<g id="glyph-24-2-4f99f423">
<path d="M 7.1875 -3.328125 C 7.1875 -3.328125 1.78125 -3.328125 1.78125 -3.328125 C 1.8125 -1.65625 2.71875 -0.875 3.9375 -0.875 C 4.875 -0.875 5.53125 -1.265625 5.859375 -2.21875 C 5.859375 -2.21875 7.03125 -2.21875 7.03125 -2.21875 C 6.734375 -0.734375 5.578125 0.203125 3.890625 0.203125 C 1.828125 0.203125 0.5625 -1.21875 0.5625 -3.625 C 0.5625 -6.03125 1.875 -7.546875 3.921875 -7.546875 C 5.296875 -7.546875 6.40625 -6.8125 6.890625 -5.609375 C 7.09375 -5.0625 7.1875 -4.390625 7.1875 -3.328125 Z M 5.9375 -4.375 C 5.9375 -5.515625 5.046875 -6.46875 3.90625 -6.46875 C 2.734375 -6.46875 1.90625 -5.59375 1.8125 -4.28125 C 1.8125 -4.28125 5.921875 -4.28125 5.921875 -4.28125 C 5.9375 -4.3125 5.9375 -4.375 5.9375 -4.375 Z M 5.9375 -4.375 "/>
</g>
<g id="glyph-25-0-4f99f423">
<path d="M 6.75 0 C 6.75 0 5.703125 0 5.703125 0 C 5.703125 0 5.703125 -1.140625 5.703125 -1.140625 C 5.015625 -0.171875 4.328125 0.203125 3.25 0.203125 C 1.8125 0.203125 0.90625 -0.578125 0.90625 -1.796875 C 0.90625 -1.796875 0.90625 -7.34375 0.90625 -7.34375 C 0.90625 -7.34375 2.078125 -7.34375 2.078125 -7.34375 C 2.078125 -7.34375 2.078125 -2.25 2.078125 -2.25 C 2.078125 -1.375 2.65625 -0.8125 3.578125 -0.8125 C 4.796875 -0.8125 5.59375 -1.796875 5.59375 -3.296875 C 5.59375 -3.296875 5.59375 -7.34375 5.59375 -7.34375 C 5.59375 -7.34375 6.75 -7.34375 6.75 -7.34375 C 6.75 -7.34375 6.75 0 6.75 0 Z M 6.75 0 "/>
</g>
</g>
</defs>
<rect x="-60" y="-45" width="720" height="540" fill="rgb(100%, 100%, 100%)" fill-opacity="1"/>
<path fill-rule="nonzero" fill="rgb(100%, 100%, 100%)" fill-opacity="1" d="M 83 393 L 584 393 L 584 36 L 83 36 Z M 83 393 "/>
<path fill="none" stroke-width="1" stroke-linecap="butt" stroke-linejoin="miter" stroke="rgb(0%, 0%, 0%)" stroke-opacity="0.12" stroke-miterlimit="1.154701" d="M 105.773438 393 L 105.773438 36 "/>
<path fill="none" stroke-width="1" stroke-linecap="butt" stroke-linejoin="miter" stroke="rgb(0%, 0%, 0%)" stroke-opacity="0.12" stroke-miterlimit="1.154701" d="M 181.683594 393 L 181.683594 36 "/>
<path fill="none" stroke-width="1" stroke-linecap="butt" stroke-linejoin="miter" stroke="rgb(0%, 0%, 0%)" stroke-opacity="0.12" stroke-miterlimit="1.154701" d="M 257.589844 393 L 257.589844 36 "/>
<path fill="none" stroke-width="1" stroke-linecap="butt" stroke-linejoin="miter" stroke="rgb(0%, 0%, 0%)" stroke-opacity="0.12" stroke-miterlimit="1.154701" d="M 333.5 393 L 333.5 36 "/>
<path fill="none" stroke-width="1" stroke-linecap="butt" stroke-linejoin="miter" stroke="rgb(0%, 0%, 0%)" stroke-opacity="0.12" stroke-miterlimit="1.154701" d="M 409.410156 393 L 409.410156 36 "/>
<path fill="none" stroke-width="1" stroke-linecap="butt" stroke-linejoin="miter" stroke="rgb(0%, 0%, 0%)" stroke-opacity="0.12" stroke-miterlimit="1.154701" d="M 485.316406 393 L 485.316406 36 "/>
<path fill="none" stroke-width="1" stroke-linecap="butt" stroke-linejoin="miter" stroke="rgb(0%, 0%, 0%)" stroke-opacity="0.12" stroke-miterlimit="1.154701" d="M 561.226562 393 L 561.226562 36 "/>
<path fill="none" stroke-width="1" stroke-linecap="butt" stroke-linejoin="miter" stroke="rgb(0%, 0%, 0%)" stroke-opacity="0.12" stroke-miterlimit="1.154701" d="M 83 304.640625 L 584 304.640625 "/>
<path fill="none" stroke-width="1" stroke-linecap="butt" stroke-linejoin="miter" stroke="rgb(0%, 0%, 0%)" stroke-opacity="0.12" stroke-miterlimit="1.154701" d="M 83 198.519531 L 584 198.519531 "/>
<path fill="none" stroke-width="1" stroke-linecap="butt" stroke-linejoin="miter" stroke="rgb(0%, 0%, 0%)" stroke-opacity="0.12" stroke-miterlimit="1.154701" d="M 83 92.398438 L 584 92.398438 "/>
<g fill="rgb(0%, 0%, 0%)" fill-opacity="1">
<use xlink:href="#glyph-0-0-4f99f423" x="321.844999" y="431.594"/>
</g>
<g fill="rgb(0%, 0%, 0%)" fill-opacity="1">
<use xlink:href="#glyph-1-0-4f99f423" x="326.492999" y="431.594"/>
</g>
<g fill="rgb(0%, 0%, 0%)" fill-opacity="1">
<use xlink:href="#glyph-1-1-4f99f423" x="333.493" y="431.594"/>
</g>
<g fill="rgb(0%, 0%, 0%)" fill-opacity="1">
<use xlink:href="#glyph-2-0-4f99f423" x="101.880728" y="414.258"/>
</g>
<g fill="rgb(0%, 0%, 0%)" fill-opacity="1">
<use xlink:href="#glyph-3-0-4f99f423" x="173.897824" y="414.258"/>
</g>
<g fill="rgb(0%, 0%, 0%)" fill-opacity="1">
<use xlink:href="#glyph-2-0-4f99f423" x="181.681824" y="414.258"/>
</g>
<g fill="rgb(0%, 0%, 0%)" fill-opacity="1">
<use xlink:href="#glyph-4-0-4f99f423" x="249.806912" y="414.258"/>
</g>
<g fill="rgb(0%, 0%, 0%)" fill-opacity="1">
<use xlink:href="#glyph-5-0-4f99f423" x="257.590912" y="414.258"/>
</g>
<g fill="rgb(0%, 0%, 0%)" fill-opacity="1">
<use xlink:href="#glyph-5-1-4f99f423" x="325.716" y="414.258"/>
</g>
<g fill="rgb(0%, 0%, 0%)" fill-opacity="1">
<use xlink:href="#glyph-4-1-4f99f423" x="333.5" y="414.258"/>
</g>
<g fill="rgb(0%, 0%, 0%)" fill-opacity="1">
<use xlink:href="#glyph-3-1-4f99f423" x="401.625088" y="414.258"/>
</g>
<g fill="rgb(0%, 0%, 0%)" fill-opacity="1">
<use xlink:href="#glyph-3-2-4f99f423" x="409.409088" y="414.258"/>
</g>
<g fill="rgb(0%, 0%, 0%)" fill-opacity="1">
<use xlink:href="#glyph-4-2-4f99f423" x="477.534176" y="414.258"/>
</g>
<g fill="rgb(0%, 0%, 0%)" fill-opacity="1">
<use xlink:href="#glyph-3-2-4f99f423" x="485.318176" y="414.258"/>
</g>
<g fill="rgb(0%, 0%, 0%)" fill-opacity="1">
<use xlink:href="#glyph-3-3-4f99f423" x="553.443295" y="414.258"/>
</g>
<g fill="rgb(0%, 0%, 0%)" fill-opacity="1">
<use xlink:href="#glyph-6-0-4f99f423" x="561.227295" y="414.258"/>
</g>
<g fill="rgb(0%, 0%, 0%)" fill-opacity="1">
<use xlink:href="#glyph-7-0-4f99f423" x="26.294003" y="225.104998"/>
</g>
<g fill="rgb(0%, 0%, 0%)" fill-opacity="1">
<use xlink:href="#glyph-8-0-4f99f423" x="26.294003" y="218.090999"/>
</g>
<g fill="rgb(0%, 0%, 0%)" fill-opacity="1">
<use xlink:href="#glyph-9-0-4f99f423" x="26.294003" y="213.918999"/>
</g>
<g fill="rgb(0%, 0%, 0%)" fill-opacity="1">
<use xlink:href="#glyph-8-1-4f99f423" x="26.294003" y="208.697001"/>
</g>
<g fill="rgb(0%, 0%, 0%)" fill-opacity="1">
<use xlink:href="#glyph-10-0-4f99f423" x="45.824001" y="230.946499"/>
</g>
<g fill="rgb(0%, 0%, 0%)" fill-opacity="1">
<use xlink:href="#glyph-11-0-4f99f423" x="45.824001" y="224.135499"/>
</g>
<g fill="rgb(0%, 0%, 0%)" fill-opacity="1">
<use xlink:href="#glyph-12-0-4f99f423" x="45.824002" y="216.1555"/>
</g>
<g fill="rgb(0%, 0%, 0%)" fill-opacity="1">
<use xlink:href="#glyph-13-0-4f99f423" x="45.824002" y="209.7155"/>
</g>
<path fill="none" stroke-width="0.525" stroke-linecap="butt" stroke-linejoin="miter" stroke="rgb(0%, 0%, 0%)" stroke-opacity="1" stroke-miterlimit="1.154701" d="M 32.78125 232.207031 L 32.78125 196.765625 "/>
<g fill="rgb(0%, 0%, 0%)" fill-opacity="1">
<use xlink:href="#glyph-14-0-4f99f423" x="53.540001" y="309.742771"/>
</g>
<g fill="rgb(0%, 0%, 0%)" fill-opacity="1">
<use xlink:href="#glyph-15-0-4f99f423" x="61.324001" y="309.742771"/>
</g>
<g fill="rgb(0%, 0%, 0%)" fill-opacity="1">
<use xlink:href="#glyph-16-0-4f99f423" x="65.216001" y="309.742771"/>
</g>
<g fill="rgb(0%, 0%, 0%)" fill-opacity="1">
<use xlink:href="#glyph-14-0-4f99f423" x="53.540001" y="203.622043"/>
</g>
<g fill="rgb(0%, 0%, 0%)" fill-opacity="1">
<use xlink:href="#glyph-15-0-4f99f423" x="61.324001" y="203.622043"/>
</g>
<g fill="rgb(0%, 0%, 0%)" fill-opacity="1">
<use xlink:href="#glyph-16-1-4f99f423" x="65.216001" y="203.622043"/>
</g>
<g fill="rgb(0%, 0%, 0%)" fill-opacity="1">
<use xlink:href="#glyph-17-0-4f99f423" x="53.540001" y="97.501316"/>
</g>
<g fill="rgb(0%, 0%, 0%)" fill-opacity="1">
<use xlink:href="#glyph-18-0-4f99f423" x="61.324001" y="97.501316"/>
</g>
<g fill="rgb(0%, 0%, 0%)" fill-opacity="1">
<use xlink:href="#glyph-19-0-4f99f423" x="65.216001" y="97.501316"/>
</g>
<g fill="rgb(0%, 0%, 0%)" fill-opacity="1">
<use xlink:href="#glyph-20-0-4f99f423" x="266.594009" y="28.948"/>
</g>
<g fill="rgb(0%, 0%, 0%)" fill-opacity="1">
<use xlink:href="#glyph-21-0-4f99f423" x="276.702011" y="28.948"/>
</g>
<g fill="rgb(0%, 0%, 0%)" fill-opacity="1">
<use xlink:href="#glyph-22-0-4f99f423" x="284.486008" y="28.948"/>
</g>
<g fill="rgb(0%, 0%, 0%)" fill-opacity="1">
<use xlink:href="#glyph-20-1-4f99f423" x="292.270012" y="28.948"/>
</g>
<g fill="rgb(0%, 0%, 0%)" fill-opacity="1">
<use xlink:href="#glyph-20-2-4f99f423" x="300.824009" y="28.948"/>
</g>
<g fill="rgb(0%, 0%, 0%)" fill-opacity="1">
<use xlink:href="#glyph-20-3-4f99f423" x="309.37801" y="28.948"/>
</g>
<g fill="rgb(0%, 0%, 0%)" fill-opacity="1">
<use xlink:href="#glyph-20-4-4f99f423" x="317.932011" y="28.948"/>
</g>
<g fill="rgb(0%, 0%, 0%)" fill-opacity="1">
<use xlink:href="#glyph-21-0-4f99f423" x="325.716011" y="28.948"/>
</g>
<g fill="rgb(0%, 0%, 0%)" fill-opacity="1">
<use xlink:href="#glyph-20-5-4f99f423" x="333.500008" y="28.948"/>
</g>
<g fill="rgb(0%, 0%, 0%)" fill-opacity="1">
<use xlink:href="#glyph-20-6-4f99f423" x="337.392006" y="28.948"/>
</g>
<g fill="rgb(0%, 0%, 0%)" fill-opacity="1">
<use xlink:href="#glyph-20-2-4f99f423" x="342.054008" y="28.948"/>
</g>
<g fill="rgb(0%, 0%, 0%)" fill-opacity="1">
<use xlink:href="#glyph-22-1-4f99f423" x="350.608009" y="28.948"/>
</g>
<g fill="rgb(0%, 0%, 0%)" fill-opacity="1">
<use xlink:href="#glyph-22-2-4f99f423" x="354.500008" y="28.948"/>
</g>
<g fill="rgb(0%, 0%, 0%)" fill-opacity="1">
<use xlink:href="#glyph-20-5-4f99f423" x="362.284004" y="28.948"/>
</g>
<g fill="rgb(0%, 0%, 0%)" fill-opacity="1">
<use xlink:href="#glyph-20-7-4f99f423" x="366.176003" y="28.948"/>
</g>
<g fill="rgb(0%, 0%, 0%)" fill-opacity="1">
<use xlink:href="#glyph-21-1-4f99f423" x="371.622002" y="28.948"/>
</g>
<g fill="rgb(0%, 0%, 0%)" fill-opacity="1">
<use xlink:href="#glyph-20-8-4f99f423" x="379.405998" y="28.948"/>
</g>
<g fill="rgb(0%, 0%, 0%)" fill-opacity="1">
<use xlink:href="#glyph-20-1-4f99f423" x="391.851997" y="28.948"/>
</g>
<path fill="none" stroke-width="1.5" stroke-linecap="butt" stroke-linejoin="miter" stroke="rgb(0%, 44.705883%, 69.803923%)" stroke-opacity="1" stroke-miterlimit="2" d="M 105.773438 304.640625 L 109.1875 304.640625 L 109.566406 304.636719 L 110.328125 304.636719 L 111.085938 304.628906 L 111.84375 304.613281 L 112.226562 304.601562 L 112.605469 304.589844 L 112.984375 304.570312 L 113.363281 304.546875 L 113.742188 304.519531 L 114.121094 304.488281 L 114.503906 304.445312 L 114.882812 304.402344 L 115.261719 304.347656 L 115.640625 304.289062 L 116.398438 304.15625 L 116.78125 304.082031 L 117.160156 304.007812 L 117.917969 303.867188 L 118.296875 303.800781 L 118.675781 303.746094 L 119.058594 303.703125 L 119.4375 303.671875 L 119.816406 303.652344 L 120.195312 303.652344 L 120.574219 303.667969 L 120.953125 303.703125 L 121.335938 303.753906 L 121.714844 303.816406 L 122.09375 303.886719 L 122.472656 303.964844 L 123.230469 304.128906 L 123.613281 304.203125 L 123.992188 304.269531 L 124.371094 304.320312 L 124.75 304.355469 L 125.128906 304.371094 L 125.507812 304.363281 L 125.886719 304.332031 L 126.269531 304.277344 L 126.648438 304.195312 L 127.027344 304.085938 L 127.40625 303.953125 L 127.785156 303.800781 L 128.164062 303.628906 L 128.546875 303.433594 L 128.925781 303.222656 L 129.304688 302.996094 L 129.683594 302.761719 L 130.0625 302.511719 L 130.441406 302.257812 L 130.824219 302 L 131.960938 301.203125 L 132.71875 300.679688 L 133.101562 300.421875 L 133.859375 299.921875 L 134.238281 299.710938 L 134.617188 299.511719 L 134.996094 299.257812 L 135.378906 299.03125 L 135.757812 298.816406 L 136.136719 298.617188 L 136.515625 298.429688 L 136.894531 298.253906 L 137.273438 298.085938 L 137.65625 297.929688 L 138.035156 297.785156 L 138.414062 297.652344 L 138.792969 297.527344 L 139.171875 297.410156 L 139.550781 297.304688 L 139.933594 297.207031 L 140.3125 297.113281 L 140.691406 297.03125 L 141.070312 296.957031 L 141.449219 296.886719 L 141.828125 296.820312 L 142.210938 296.761719 L 142.589844 296.707031 L 142.96875 296.65625 L 143.347656 296.609375 L 143.726562 296.570312 L 144.105469 296.527344 L 144.488281 296.484375 L 145.246094 296.398438 L 146.003906 296.304688 L 146.382812 296.253906 L 146.761719 296.199219 L 147.144531 296.140625 L 147.523438 296.074219 L 148.28125 295.925781 L 148.660156 295.84375 L 149.039062 295.75 L 149.421875 295.648438 L 149.800781 295.542969 L 150.179688 295.425781 L 150.558594 295.300781 L 150.9375 295.171875 L 151.316406 295.03125 L 151.699219 294.878906 L 152.078125 294.726562 L 152.457031 294.5625 L 153.214844 294.21875 L 153.59375 294.035156 L 153.976562 293.851562 L 154.355469 293.660156 L 154.734375 293.464844 L 155.492188 293.058594 L 155.871094 292.859375 L 156.253906 292.648438 L 156.632812 292.425781 L 158.148438 291.582031 L 158.53125 291.367188 L 158.910156 291.15625 L 159.667969 290.75 L 160.425781 290.367188 L 160.808594 290.183594 L 161.1875 290 L 161.945312 289.640625 L 162.324219 289.480469 L 162.703125 289.445312 L 163.085938 289.320312 L 163.464844 289.148438 L 163.84375 288.988281 L 164.222656 288.859375 L 164.601562 288.75 L 164.980469 288.652344 L 165.363281 288.566406 L 165.742188 288.488281 L 166.121094 288.414062 L 166.878906 288.289062 L 167.636719 288.179688 L 168.019531 288.121094 L 168.398438 288.054688 L 168.777344 287.980469 L 169.15625 287.910156 L 169.535156 287.832031 L 169.914062 287.84375 L 170.296875 287.820312 L 170.675781 287.707031 L 171.054688 287.601562 L 171.433594 287.519531 L 171.8125 287.453125 L 172.191406 287.390625 L 172.574219 287.328125 L 172.953125 287.261719 L 173.332031 287.183594 L 173.710938 287.097656 L 174.089844 287 L 174.46875 286.890625 L 174.851562 286.769531 L 175.230469 286.636719 L 175.609375 286.484375 L 175.988281 286.3125 L 176.367188 286.117188 L 176.746094 285.925781 L 177.128906 286.058594 L 177.507812 285.71875 L 177.886719 285.476562 L 178.265625 285.242188 L 178.644531 285.039062 L 179.023438 284.859375 L 179.40625 284.699219 L 180.164062 284.378906 L 180.921875 284.035156 L 181.300781 283.851562 L 181.683594 283.667969 L 182.820312 283.105469 L 183.199219 282.90625 L 183.578125 282.683594 L 183.960938 282.5 L 184.339844 282.59375 L 184.71875 282.300781 L 185.097656 282.054688 L 185.476562 281.886719 L 185.855469 281.773438 L 186.238281 281.703125 L 186.617188 281.648438 L 186.996094 281.605469 L 187.375 281.570312 L 188.132812 281.507812 L 188.511719 281.480469 L 188.894531 281.457031 L 189.652344 281.402344 L 190.03125 281.367188 L 190.410156 281.3125 L 190.789062 281.269531 L 191.171875 281.558594 L 191.550781 281.800781 L 191.929688 281.644531 L 192.308594 281.628906 L 192.6875 281.660156 L 193.066406 281.726562 L 193.449219 281.816406 L 193.828125 281.917969 L 194.585938 282.128906 L 194.964844 282.230469 L 195.34375 282.324219 L 195.726562 282.410156 L 196.105469 282.480469 L 196.484375 282.527344 L 196.863281 282.542969 L 197.242188 282.53125 L 197.621094 282.542969 L 198.003906 282.46875 L 198.382812 282.558594 L 198.761719 282.636719 L 199.140625 282.636719 L 199.898438 282.582031 L 200.28125 282.542969 L 200.660156 282.492188 L 201.039062 282.417969 L 201.417969 282.324219 L 201.796875 282.210938 L 202.175781 282.078125 L 202.558594 281.925781 L 202.9375 281.761719 L 203.316406 281.582031 L 203.695312 281.386719 L 204.074219 281.175781 L 204.453125 280.933594 L 204.835938 280.644531 L 205.214844 280.375 L 205.59375 280.277344 L 205.972656 279.957031 L 206.730469 279.277344 L 207.113281 278.949219 L 207.871094 278.300781 L 208.25 277.96875 L 208.628906 277.625 L 209.007812 277.269531 L 209.386719 276.902344 L 209.769531 276.519531 L 210.148438 276.125 L 210.527344 275.707031 L 210.90625 275.273438 L 211.285156 274.820312 L 211.664062 274.347656 L 212.046875 273.859375 L 212.425781 273.355469 L 212.804688 273.257812 L 213.183594 272.660156 L 213.5625 272.097656 L 213.941406 271.652344 L 214.324219 271.234375 L 215.082031 270.414062 L 215.460938 270 L 215.839844 269.589844 L 216.21875 269.183594 L 216.601562 268.773438 L 216.980469 268.363281 L 217.738281 267.535156 L 218.117188 267.109375 L 218.496094 266.671875 L 218.878906 266.214844 L 219.257812 265.773438 L 219.636719 265.695312 L 220.015625 265.3125 L 220.394531 264.738281 L 220.773438 264.207031 L 221.15625 263.742188 L 221.535156 263.320312 L 221.914062 262.925781 L 222.292969 262.554688 L 222.671875 262.207031 L 223.050781 261.875 L 223.433594 261.554688 L 224.191406 260.9375 L 224.570312 260.613281 L 224.949219 260.261719 L 225.328125 259.867188 L 225.710938 259.4375 L 226.089844 259.046875 L 226.46875 258.578125 L 226.847656 258.386719 L 227.226562 258.253906 L 227.605469 257.75 L 227.988281 257.320312 L 228.367188 256.980469 L 228.746094 256.703125 L 229.125 256.460938 L 230.261719 255.78125 L 230.644531 255.542969 L 231.023438 255.296875 L 231.78125 254.796875 L 232.160156 254.542969 L 232.539062 254.296875 L 232.921875 254.066406 L 233.300781 253.839844 L 233.679688 253.636719 L 234.058594 253.34375 L 234.4375 253.382812 L 234.816406 253.34375 L 235.199219 253.289062 L 235.578125 253.222656 L 235.957031 253.152344 L 236.335938 253.085938 L 236.714844 253.035156 L 237.09375 253 L 237.476562 252.992188 L 237.855469 253.019531 L 238.234375 253.085938 L 238.613281 253.191406 L 238.992188 253.339844 L 239.371094 253.53125 L 239.753906 253.757812 L 240.132812 254.035156 L 240.511719 254.363281 L 240.890625 254.726562 L 241.269531 255.644531 L 241.648438 255.503906 L 242.03125 255.621094 L 242.410156 255.96875 L 242.789062 256.507812 L 243.167969 257.1875 L 243.546875 257.960938 L 243.925781 258.792969 L 244.308594 259.65625 L 244.6875 260.535156 L 245.066406 261.421875 L 245.445312 262.316406 L 245.824219 263.214844 L 246.203125 264.125 L 246.585938 265.054688 L 246.964844 266.027344 L 247.34375 267.058594 L 247.722656 268.09375 L 248.101562 269.363281 L 248.480469 270.886719 L 248.863281 272.375 L 249.242188 273.851562 L 249.621094 275.375 L 250 276.921875 L 250.378906 278.492188 L 250.757812 280.101562 L 251.136719 281.746094 L 251.519531 283.433594 L 251.898438 285.164062 L 252.277344 286.9375 L 252.65625 288.75 L 253.035156 290.609375 L 253.414062 292.515625 L 253.796875 294.46875 L 254.554688 298.46875 L 254.933594 300.53125 L 255.3125 303 L 255.691406 305.347656 L 256.074219 306.730469 L 256.453125 308.414062 L 256.832031 310.34375 L 257.210938 312.453125 L 257.589844 314.675781 L 257.96875 316.949219 L 258.351562 319.21875 L 258.730469 321.441406 L 259.109375 323.578125 L 259.488281 325.601562 L 259.867188 327.484375 L 260.246094 329.214844 L 260.628906 330.78125 L 261.007812 332.175781 L 261.386719 333.386719 L 261.765625 334.390625 L 262.144531 335.207031 L 262.523438 338.285156 L 262.90625 339.066406 L 263.285156 339.929688 L 263.664062 340.816406 L 264.042969 341.636719 L 264.421875 342.347656 L 264.800781 342.933594 L 265.183594 343.382812 L 265.5625 343.683594 L 265.941406 343.828125 L 266.320312 343.800781 L 266.699219 343.589844 L 267.078125 343.1875 L 267.460938 342.585938 L 267.839844 341.769531 L 268.21875 340.742188 L 268.597656 339.503906 L 268.976562 338.085938 L 269.355469 336.414062 L 269.738281 335.613281 L 270.117188 333.109375 L 270.496094 330.710938 L 270.875 328.292969 L 271.253906 325.820312 L 271.632812 323.261719 L 272.011719 320.59375 L 272.394531 317.792969 L 272.773438 314.84375 L 273.152344 311.742188 L 273.53125 308.476562 L 273.910156 305.050781 L 274.289062 301.472656 L 274.671875 297.75 L 275.050781 293.902344 L 275.429688 289.957031 L 275.808594 285.9375 L 276.1875 281.777344 L 276.566406 278.085938 L 276.949219 274.132812 L 277.707031 266.015625 L 278.085938 262.035156 L 278.464844 258.15625 L 278.84375 254.371094 L 279.226562 250.683594 L 279.605469 247.085938 L 279.984375 243.582031 L 280.363281 240.191406 L 280.742188 236.929688 L 281.121094 233.820312 L 281.503906 230.882812 L 281.882812 228.144531 L 282.261719 225.625 L 282.640625 223.335938 L 283.019531 221.257812 L 283.398438 219.46875 L 283.78125 217.652344 L 284.160156 216.113281 L 284.539062 215.070312 L 284.917969 214.214844 L 285.296875 213.542969 L 285.675781 213.0625 L 286.058594 212.777344 L 286.4375 212.6875 L 286.816406 212.792969 L 287.195312 213.089844 L 287.574219 213.574219 L 287.953125 214.242188 L 288.335938 215.085938 L 288.714844 216.101562 L 289.09375 217.273438 L 289.472656 218.585938 L 289.851562 220.011719 L 290.230469 221.53125 L 290.613281 223.144531 L 290.992188 224.191406 L 291.371094 225.703125 L 291.75 227.199219 L 292.128906 228.632812 L 292.507812 229.976562 L 292.886719 231.21875 L 293.269531 232.351562 L 293.648438 233.367188 L 294.027344 234.253906 L 294.40625 234.996094 L 294.785156 235.582031 L 295.164062 236 L 295.546875 236.246094 L 295.925781 236.308594 L 296.304688 236.183594 L 296.683594 235.875 L 297.0625 235.382812 L 297.441406 234.699219 L 297.824219 233.832031 L 298.203125 232.894531 L 298.582031 231.320312 L 298.960938 229.679688 L 299.339844 227.964844 L 299.71875 226.160156 L 300.101562 224.253906 L 300.480469 222.253906 L 300.859375 220.148438 L 301.238281 217.949219 L 301.617188 215.660156 L 301.996094 213.289062 L 302.378906 210.84375 L 302.757812 208.339844 L 303.136719 205.796875 L 303.894531 200.65625 L 304.273438 198.117188 L 304.65625 195.546875 L 305.035156 193.546875 L 305.414062 191.304688 L 305.792969 188.722656 L 306.171875 186.355469 L 306.550781 184.105469 L 306.933594 182.011719 L 307.3125 180.070312 L 307.691406 178.261719 L 308.070312 176.5625 L 308.449219 174.96875 L 308.828125 173.46875 L 309.210938 172.054688 L 309.589844 170.726562 L 309.96875 169.472656 L 310.347656 168.296875 L 310.726562 167.191406 L 311.105469 166.144531 L 311.488281 165.148438 L 311.867188 164.199219 L 312.246094 163.28125 L 312.625 162.328125 L 313.003906 161.402344 L 313.382812 160.527344 L 313.761719 159.707031 L 314.144531 158.914062 L 314.523438 158.121094 L 314.902344 157.320312 L 315.28125 156.503906 L 315.660156 155.671875 L 316.039062 154.832031 L 316.421875 153.988281 L 316.800781 153.148438 L 317.179688 152.324219 L 317.558594 151.519531 L 317.9375 150.742188 L 318.316406 149.988281 L 318.699219 149.257812 L 319.078125 148.605469 L 319.457031 147.390625 L 319.835938 146.316406 L 320.214844 145.296875 L 320.59375 144.300781 L 320.976562 143.359375 L 321.355469 142.464844 L 321.734375 141.609375 L 322.113281 140.78125 L 322.492188 139.972656 L 322.871094 139.171875 L 323.253906 138.378906 L 323.632812 137.585938 L 324.011719 136.796875 L 324.769531 135.226562 L 325.148438 134.445312 L 325.53125 133.664062 L 325.910156 132.867188 L 326.289062 132.097656 L 326.667969 131.980469 L 327.046875 131.347656 L 327.425781 130.773438 L 327.808594 130.296875 L 328.1875 129.894531 L 328.566406 129.558594 L 328.945312 129.292969 L 329.324219 129.101562 L 329.703125 128.980469 L 330.085938 128.9375 L 330.464844 128.972656 L 330.84375 129.089844 L 331.222656 129.292969 L 331.601562 129.574219 L 331.980469 129.9375 L 332.363281 130.378906 L 332.742188 130.871094 L 333.121094 131.445312 L 333.5 131.652344 L 333.878906 132.597656 L 334.257812 133.726562 L 334.636719 134.933594 L 335.019531 136.191406 L 335.398438 137.527344 L 335.777344 138.964844 L 336.15625 140.515625 L 336.535156 142.191406 L 336.914062 144.003906 L 337.296875 145.957031 L 337.675781 148.046875 L 338.054688 150.277344 L 338.433594 152.636719 L 338.8125 155.125 L 339.191406 157.730469 L 339.574219 160.472656 L 339.953125 163.402344 L 340.332031 166.441406 L 340.710938 170.414062 L 341.089844 173.90625 L 341.46875 176.246094 L 341.851562 179.238281 L 342.230469 182.730469 L 342.609375 186.640625 L 342.988281 190.894531 L 343.367188 195.402344 L 343.746094 200.097656 L 344.128906 204.914062 L 344.507812 209.800781 L 344.886719 214.714844 L 345.265625 219.617188 L 345.644531 224.488281 L 346.023438 229.316406 L 346.40625 234.097656 L 346.785156 238.824219 L 347.164062 243.421875 L 347.542969 247.898438 L 347.921875 254.277344 L 348.300781 260.851562 L 348.683594 265.980469 L 349.0625 271.265625 L 349.441406 276.71875 L 349.820312 282.289062 L 350.199219 287.933594 L 350.578125 293.609375 L 350.960938 299.28125 L 351.339844 304.914062 L 351.71875 310.476562 L 352.097656 315.941406 L 352.476562 321.292969 L 352.855469 326.515625 L 353.238281 331.601562 L 353.617188 336.535156 L 353.996094 341.285156 L 354.375 345.730469 L 354.753906 349.964844 L 355.132812 354.445312 L 355.511719 358.214844 L 355.894531 361.140625 L 356.273438 364.007812 L 356.652344 366.6875 L 357.03125 369.164062 L 357.410156 371.382812 L 357.789062 373.292969 L 358.171875 374.835938 L 358.550781 375.960938 L 358.929688 376.617188 L 359.308594 376.773438 L 359.6875 376.398438 L 360.066406 375.472656 L 360.449219 373.992188 L 360.828125 371.953125 L 361.207031 369.367188 L 361.585938 366.226562 L 361.964844 362.453125 L 362.34375 359.046875 L 362.726562 354.238281 L 363.105469 349.1875 L 363.484375 343.855469 L 363.863281 338.128906 L 364.242188 331.992188 L 364.621094 325.464844 L 365.003906 318.570312 L 365.382812 311.339844 L 365.761719 303.8125 L 366.140625 296.027344 L 366.519531 288.019531 L 366.898438 279.832031 L 367.28125 271.511719 L 367.660156 263.105469 L 368.039062 254.660156 L 368.417969 246.226562 L 368.796875 237.871094 L 369.175781 229.625 L 369.558594 222.851562 L 369.9375 215.015625 L 370.316406 207.65625 L 370.695312 200.765625 L 371.074219 194.339844 L 371.453125 188.375 L 371.835938 182.878906 L 372.214844 177.875 L 372.59375 173.378906 L 372.972656 169.410156 L 373.351562 165.996094 L 373.730469 163.152344 L 374.113281 160.894531 L 374.492188 159.234375 L 374.871094 158.167969 L 375.25 157.699219 L 375.628906 157.8125 L 376.007812 158.496094 L 376.386719 158.398438 L 376.769531 159.042969 L 377.148438 161.476562 L 377.527344 163.929688 L 377.90625 166.410156 L 378.285156 168.941406 L 378.664062 171.527344 L 379.046875 174.160156 L 379.804688 179.488281 L 380.183594 182.125 L 380.5625 184.699219 L 380.941406 187.171875 L 381.324219 189.511719 L 381.703125 191.683594 L 382.082031 193.664062 L 382.460938 195.417969 L 382.839844 196.902344 L 383.21875 198.101562 L 383.601562 199.179688 L 383.980469 199.859375 L 384.359375 200.011719 L 384.738281 199.910156 L 385.117188 199.566406 L 385.496094 198.984375 L 385.878906 198.160156 L 386.257812 197.101562 L 386.636719 195.8125 L 387.015625 194.300781 L 387.394531 192.585938 L 387.773438 190.6875 L 388.15625 188.628906 L 388.535156 186.429688 L 388.914062 184.121094 L 389.292969 181.722656 L 389.671875 179.257812 L 390.050781 176.738281 L 390.433594 174.195312 L 390.8125 174.722656 L 391.191406 170.511719 L 391.570312 166.675781 L 391.949219 163.421875 L 392.328125 160.578125 L 392.710938 158.039062 L 393.089844 155.730469 L 393.46875 153.59375 L 393.847656 151.574219 L 394.226562 149.640625 L 394.605469 147.753906 L 394.988281 145.894531 L 395.367188 144.035156 L 395.746094 142.164062 L 396.125 140.257812 L 396.503906 138.320312 L 396.882812 136.351562 L 397.261719 134.375 L 397.644531 132.335938 L 398.023438 130.3125 L 398.402344 128.574219 L 398.78125 126.664062 L 399.160156 124.78125 L 399.539062 122.902344 L 399.921875 121.035156 L 400.300781 119.203125 L 400.679688 117.417969 L 401.058594 115.714844 L 401.4375 114.101562 L 401.816406 112.601562 L 402.199219 111.222656 L 402.578125 109.96875 L 402.957031 108.84375 L 403.335938 107.835938 L 403.714844 106.96875 L 404.09375 106.304688 L 404.476562 105.796875 L 404.855469 104.679688 L 405.234375 104.898438 L 405.613281 104.820312 L 405.992188 104.917969 L 406.371094 105.160156 L 406.753906 105.597656 L 407.132812 106.246094 L 407.511719 107.113281 L 407.890625 108.199219 L 408.269531 109.503906 L 408.648438 111.019531 L 409.03125 112.746094 L 409.410156 114.675781 L 409.789062 116.804688 L 410.167969 119.125 L 410.546875 121.636719 L 410.925781 124.34375 L 411.308594 127.289062 L 411.6875 130.363281 L 412.066406 133.359375 L 412.445312 136.722656 L 412.824219 140.605469 L 413.203125 144.554688 L 413.585938 148.617188 L 413.964844 152.761719 L 414.34375 157 L 414.722656 161.355469 L 415.101562 165.84375 L 415.480469 170.480469 L 415.863281 175.265625 L 416.242188 180.195312 L 416.621094 185.265625 L 417 190.453125 L 417.378906 195.742188 L 417.757812 201.117188 L 418.136719 206.582031 L 418.519531 212.214844 L 418.898438 217.796875 L 419.277344 224.800781 L 419.65625 230.222656 L 420.035156 235.664062 L 420.414062 241.019531 L 420.796875 246.339844 L 421.175781 251.585938 L 421.554688 256.714844 L 421.933594 261.660156 L 422.3125 266.371094 L 422.691406 270.792969 L 423.074219 274.882812 L 423.453125 278.605469 L 423.832031 281.941406 L 424.210938 284.871094 L 424.589844 287.382812 L 424.96875 289.457031 L 425.351562 291.050781 L 425.730469 292.054688 L 426.109375 292.597656 L 426.488281 293.164062 L 426.867188 291.332031 L 427.246094 289.414062 L 427.628906 287.105469 L 428.007812 284.421875 L 428.386719 281.304688 L 428.765625 277.699219 L 429.144531 273.558594 L 429.523438 268.859375 L 429.90625 263.597656 L 430.285156 257.792969 L 430.664062 251.46875 L 431.042969 244.667969 L 431.421875 237.441406 L 431.800781 229.832031 L 432.183594 221.90625 L 432.5625 213.730469 L 432.941406 205.308594 L 433.320312 197.398438 L 433.699219 189.578125 L 434.078125 181.410156 L 434.460938 173.5 L 434.839844 165.835938 L 435.21875 158.429688 L 435.597656 151.324219 L 435.976562 144.574219 L 436.355469 138.226562 L 436.738281 132.328125 L 437.117188 126.925781 L 437.496094 122.050781 L 437.875 117.738281 L 438.253906 114 L 438.632812 110.855469 L 439.011719 108.304688 L 439.394531 106.339844 L 439.773438 104.933594 L 440.152344 104.066406 L 440.53125 103.476562 L 440.910156 103.648438 L 441.289062 104.503906 L 441.671875 105.550781 L 442.050781 106.800781 L 442.429688 108.214844 L 442.808594 109.753906 L 443.1875 111.382812 L 443.566406 113.054688 L 443.949219 114.726562 L 444.328125 116.351562 L 444.707031 117.886719 L 445.085938 119.289062 L 445.464844 120.511719 L 445.84375 121.523438 L 446.226562 122.277344 L 446.605469 122.746094 L 446.984375 122.886719 L 447.363281 122.878906 L 447.742188 124.214844 L 448.121094 124.347656 L 448.503906 124.109375 L 448.882812 123.691406 L 449.261719 123.128906 L 449.640625 122.449219 L 450.019531 121.683594 L 450.398438 120.851562 L 450.78125 119.96875 L 451.160156 119.054688 L 451.539062 118.121094 L 451.917969 117.183594 L 452.296875 116.253906 L 452.675781 115.347656 L 453.058594 114.46875 L 453.4375 113.636719 L 453.816406 112.855469 L 454.195312 112.148438 L 454.574219 111.5 L 454.953125 112.027344 L 455.335938 110.980469 L 455.714844 110.265625 L 456.09375 109.980469 L 456.472656 109.992188 L 456.851562 110.222656 L 457.230469 110.617188 L 457.613281 111.144531 L 457.992188 111.785156 L 458.371094 112.527344 L 458.75 113.363281 L 459.128906 114.285156 L 459.507812 115.292969 L 459.886719 116.378906 L 460.269531 117.53125 L 460.648438 118.757812 L 461.027344 120.09375 L 461.40625 121.5625 L 461.785156 124.683594 L 462.164062 125.894531 L 462.546875 127.730469 L 462.925781 129.917969 L 463.304688 132.351562 L 463.683594 135.050781 L 464.0625 138.011719 L 464.441406 141.222656 L 464.824219 144.671875 L 465.203125 148.355469 L 465.582031 152.265625 L 465.960938 156.40625 L 466.339844 160.765625 L 466.71875 165.335938 L 467.101562 170.109375 L 467.480469 175.082031 L 467.859375 180.253906 L 468.238281 185.644531 L 468.617188 191.203125 L 468.996094 197.097656 L 469.378906 203.105469 L 469.757812 209.203125 L 470.136719 215.472656 L 470.515625 221.871094 L 470.894531 228.332031 L 471.273438 234.832031 L 471.65625 241.351562 L 472.035156 247.859375 L 472.414062 254.324219 L 472.792969 260.714844 L 473.171875 266.984375 L 473.550781 273.09375 L 473.933594 278.984375 L 474.3125 284.617188 L 474.691406 289.957031 L 475.070312 295 L 475.449219 299.800781 L 475.828125 303.996094 L 476.210938 305.21875 L 476.589844 308.929688 L 476.96875 311.921875 L 477.347656 314.023438 L 477.726562 315.351562 L 478.105469 315.9375 L 478.488281 315.777344 L 478.867188 314.871094 L 479.246094 313.21875 L 479.625 310.828125 L 480.003906 307.71875 L 480.382812 303.921875 L 480.761719 299.472656 L 481.144531 294.425781 L 481.523438 288.824219 L 481.902344 282.707031 L 482.28125 276.089844 L 482.660156 268.910156 L 483.039062 261.429688 L 483.421875 253.738281 L 483.800781 244.082031 L 484.179688 234.675781 L 484.558594 225.359375 L 484.9375 216.183594 L 485.316406 207.140625 L 485.699219 198.226562 L 486.078125 189.457031 L 486.457031 180.855469 L 486.835938 172.472656 L 487.214844 164.355469 L 487.59375 156.566406 L 487.976562 149.15625 L 488.355469 142.171875 L 488.734375 135.640625 L 489.113281 129.59375 L 489.492188 124.066406 L 489.871094 119.097656 L 490.253906 114.6875 L 490.632812 111.519531 L 491.011719 109.246094 L 491.390625 107.304688 L 491.769531 105.699219 L 492.148438 104.429688 L 492.53125 103.476562 L 492.910156 102.820312 L 493.289062 102.433594 L 493.667969 102.28125 L 494.046875 102.328125 L 494.425781 102.535156 L 494.808594 102.851562 L 495.1875 103.234375 L 495.566406 103.628906 L 495.945312 103.984375 L 496.324219 104.253906 L 496.703125 104.433594 L 497.085938 104.453125 L 497.464844 104.28125 L 497.84375 104.136719 L 498.222656 103.867188 L 498.601562 103.289062 L 498.980469 102.484375 L 499.363281 101.46875 L 499.742188 100.269531 L 500.121094 98.917969 L 500.5 97.4375 L 500.878906 95.863281 L 501.257812 94.21875 L 501.636719 92.53125 L 502.019531 90.832031 L 502.398438 89.144531 L 502.777344 87.492188 L 503.15625 85.898438 L 503.535156 84.359375 L 503.914062 82.863281 L 504.296875 81.554688 L 504.675781 82.871094 L 505.054688 81.273438 L 505.433594 80.179688 L 505.8125 79.46875 L 506.191406 79.113281 L 506.574219 79.078125 L 506.953125 79.332031 L 507.332031 79.839844 L 507.710938 80.578125 L 508.089844 81.523438 L 508.46875 82.664062 L 508.851562 83.980469 L 509.230469 85.46875 L 509.609375 87.117188 L 509.988281 88.921875 L 510.367188 90.875 L 510.746094 93 L 511.128906 95.347656 L 511.507812 97.816406 L 511.886719 103.234375 L 512.265625 105.300781 L 512.644531 108 L 513.023438 111.40625 L 513.40625 115.375 L 513.785156 119.777344 L 514.164062 124.515625 L 514.542969 129.511719 L 514.921875 134.695312 L 515.300781 140.015625 L 515.683594 145.421875 L 516.0625 150.871094 L 516.441406 156.316406 L 516.820312 161.722656 L 517.199219 167.054688 L 517.578125 172.289062 L 517.960938 177.441406 L 518.339844 182.457031 L 518.71875 190.0625 L 519.097656 198.007812 L 519.476562 203.558594 L 519.855469 209.144531 L 520.238281 214.804688 L 520.617188 220.332031 L 520.996094 225.648438 L 521.375 230.699219 L 521.753906 235.441406 L 522.132812 239.816406 L 522.511719 243.765625 L 522.894531 247.226562 L 523.273438 250.140625 L 523.652344 252.449219 L 524.03125 254.117188 L 524.410156 255.117188 L 524.789062 255.429688 L 525.171875 254.980469 L 525.550781 253.972656 L 525.929688 252.191406 L 526.308594 249.265625 L 526.6875 245.425781 L 527.066406 241.082031 L 527.449219 236.191406 L 527.828125 230.773438 L 528.207031 224.851562 L 528.585938 218.449219 L 528.964844 211.59375 L 529.34375 204.320312 L 529.726562 196.675781 L 530.105469 188.714844 L 530.484375 180.507812 L 530.863281 172.125 L 531.242188 163.652344 L 531.621094 155.175781 L 532.003906 146.765625 L 532.382812 138.457031 L 532.761719 130.382812 L 533.140625 124.152344 L 533.519531 117.476562 L 533.898438 111.296875 L 534.28125 105.726562 L 534.660156 100.722656 L 535.039062 96.277344 L 535.417969 92.390625 L 535.796875 89.058594 L 536.175781 86.273438 L 536.558594 84.023438 L 536.9375 82.289062 L 537.316406 81.03125 L 537.695312 80.207031 L 538.074219 79.761719 L 538.453125 79.632812 L 538.835938 79.75 L 539.214844 80.050781 L 539.59375 80.527344 L 539.972656 81.050781 L 540.351562 81.140625 L 540.730469 81.890625 L 541.113281 82.304688 L 541.492188 82.570312 L 541.871094 82.628906 L 542.25 82.453125 L 542.628906 82.03125 L 543.007812 81.378906 L 543.386719 80.511719 L 543.769531 79.449219 L 544.148438 78.210938 L 544.527344 76.816406 L 544.90625 75.277344 L 545.285156 73.609375 L 545.664062 71.824219 L 546.046875 69.945312 L 546.425781 68.039062 L 546.804688 66.136719 L 547.183594 64.1875 L 547.5625 62.320312 L 547.941406 60.503906 L 548.324219 58.683594 L 548.703125 57.089844 L 549.082031 55.699219 L 549.460938 54.519531 L 549.839844 53.566406 L 550.21875 52.855469 L 550.601562 52.40625 L 550.980469 52.226562 L 551.359375 52.328125 L 551.738281 52.707031 L 552.117188 53.363281 L 552.496094 54.285156 L 552.878906 55.472656 L 553.257812 56.925781 L 553.636719 58.699219 L 554.015625 60.816406 L 554.394531 63.140625 L 554.773438 65.625 L 555.15625 67.640625 L 555.535156 70.242188 L 555.914062 73.339844 L 556.292969 76.878906 L 556.671875 80.792969 L 557.050781 85.03125 L 557.433594 89.546875 L 557.8125 94.308594 L 558.191406 99.285156 L 558.570312 104.445312 L 558.949219 109.765625 L 559.328125 115.214844 L 559.710938 120.761719 L 560.089844 126.382812 L 560.46875 132.039062 L 560.847656 137.699219 L 561.226562 143.316406 "/>
<path fill="none" stroke-width="1.5" stroke-linecap="butt" stroke-linejoin="miter" stroke="rgb(90.196079%, 62.352943%, 0%)" stroke-opacity="1" stroke-miterlimit="2" d="M 105.773438 304.640625 L 164.601562 304.640625 L 164.980469 304.636719 L 178.265625 304.636719 L 178.644531 304.632812 L 184.71875 304.632812 L 185.097656 304.628906 L 188.894531 304.628906 L 189.273438 304.625 L 192.308594 304.625 L 192.6875 304.621094 L 195.34375 304.621094 L 195.726562 304.617188 L 197.621094 304.617188 L 198.003906 304.613281 L 199.898438 304.613281 L 200.28125 304.609375 L 201.796875 304.609375 L 202.175781 304.605469 L 203.316406 304.605469 L 203.695312 304.601562 L 204.835938 304.601562 L 205.214844 304.597656 L 206.351562 304.597656 L 206.730469 304.59375 L 207.871094 304.59375 L 208.25 304.589844 L 209.007812 304.589844 L 209.386719 304.585938 L 210.148438 304.585938 L 210.527344 304.582031 L 211.285156 304.582031 L 211.664062 304.578125 L 212.425781 304.578125 L 212.804688 304.574219 L 213.5625 304.574219 L 213.941406 304.570312 L 214.324219 304.570312 L 214.703125 304.566406 L 215.460938 304.566406 L 215.839844 304.5625 L 216.21875 304.5625 L 216.601562 304.558594 L 216.980469 304.558594 L 217.359375 304.554688 L 218.117188 304.554688 L 218.496094 304.550781 L 218.878906 304.550781 L 219.257812 304.546875 L 219.636719 304.546875 L 220.015625 304.542969 L 220.394531 304.542969 L 220.773438 304.539062 L 221.15625 304.539062 L 221.535156 304.535156 L 221.914062 304.535156 L 222.671875 304.527344 L 223.050781 304.527344 L 223.433594 304.523438 L 223.8125 304.523438 L 224.191406 304.519531 L 224.570312 304.519531 L 225.328125 304.511719 L 225.710938 304.511719 L 226.46875 304.503906 L 226.847656 304.503906 L 227.605469 304.496094 L 227.988281 304.496094 L 228.746094 304.488281 L 229.125 304.488281 L 230.261719 304.476562 L 230.644531 304.476562 L 231.78125 304.464844 L 232.160156 304.464844 L 232.539062 304.460938 L 232.921875 304.457031 L 234.4375 304.441406 L 234.816406 304.441406 L 235.199219 304.4375 L 237.09375 304.417969 L 237.476562 304.414062 L 239.371094 304.394531 L 239.753906 304.390625 L 241.648438 304.371094 L 242.03125 304.363281 L 243.925781 304.34375 L 244.308594 304.335938 L 245.445312 304.324219 L 245.824219 304.316406 L 246.203125 304.3125 L 246.585938 304.308594 L 246.964844 304.300781 L 247.722656 304.292969 L 248.101562 304.285156 L 248.480469 304.28125 L 248.863281 304.277344 L 249.242188 304.269531 L 249.621094 304.265625 L 250 304.257812 L 250.378906 304.253906 L 250.757812 304.246094 L 251.136719 304.242188 L 251.519531 304.234375 L 251.898438 304.230469 L 252.277344 304.222656 L 252.65625 304.21875 L 253.414062 304.203125 L 253.796875 304.199219 L 254.554688 304.183594 L 254.933594 304.179688 L 255.691406 304.164062 L 256.074219 304.160156 L 257.96875 304.121094 L 258.351562 304.117188 L 260.246094 304.078125 L 260.628906 304.070312 L 262.523438 304.03125 L 262.90625 304.023438 L 263.285156 304.011719 L 264.800781 303.980469 L 265.183594 303.96875 L 265.941406 303.953125 L 266.320312 303.941406 L 267.078125 303.925781 L 267.460938 303.914062 L 267.839844 303.90625 L 268.21875 303.894531 L 268.597656 303.886719 L 268.976562 303.875 L 269.355469 303.867188 L 269.738281 303.855469 L 270.117188 303.847656 L 270.496094 303.835938 L 270.875 303.828125 L 271.632812 303.804688 L 272.011719 303.796875 L 272.394531 303.785156 L 273.152344 303.761719 L 273.53125 303.753906 L 274.289062 303.730469 L 274.671875 303.71875 L 276.566406 303.660156 L 276.949219 303.648438 L 278.84375 303.589844 L 279.226562 303.574219 L 280.363281 303.539062 L 280.742188 303.523438 L 281.121094 303.511719 L 281.503906 303.5 L 281.882812 303.484375 L 282.261719 303.472656 L 282.640625 303.457031 L 283.019531 303.445312 L 283.398438 303.429688 L 283.78125 303.417969 L 284.160156 303.402344 L 284.539062 303.390625 L 284.917969 303.375 L 285.296875 303.363281 L 285.675781 303.347656 L 286.058594 303.332031 L 286.4375 303.316406 L 286.816406 303.304688 L 287.953125 303.257812 L 288.335938 303.242188 L 288.714844 303.230469 L 290.230469 303.167969 L 290.613281 303.152344 L 290.992188 303.136719 L 291.371094 303.117188 L 292.886719 303.054688 L 293.269531 303.039062 L 293.648438 303.019531 L 294.40625 302.988281 L 294.785156 302.96875 L 295.164062 302.953125 L 295.546875 302.933594 L 296.304688 302.902344 L 297.0625 302.863281 L 297.441406 302.847656 L 297.824219 302.828125 L 298.203125 302.8125 L 298.960938 302.773438 L 299.339844 302.757812 L 299.71875 302.738281 L 300.101562 302.71875 L 300.859375 302.679688 L 301.238281 302.664062 L 301.996094 302.625 L 302.378906 302.605469 L 304.273438 302.507812 L 304.65625 302.484375 L 306.171875 302.40625 L 306.550781 302.382812 L 306.933594 302.363281 L 307.3125 302.34375 L 307.691406 302.320312 L 308.070312 302.300781 L 308.449219 302.277344 L 308.828125 302.257812 L 309.210938 302.234375 L 309.589844 302.214844 L 309.96875 302.191406 L 310.347656 302.171875 L 311.105469 302.125 L 311.488281 302.105469 L 313.003906 302.011719 L 313.382812 301.992188 L 313.761719 301.96875 L 314.144531 301.945312 L 316.039062 301.828125 L 316.421875 301.800781 L 317.9375 301.707031 L 318.316406 301.679688 L 318.699219 301.65625 L 319.078125 301.632812 L 319.457031 301.605469 L 319.835938 301.582031 L 320.214844 301.554688 L 320.59375 301.53125 L 320.976562 301.503906 L 321.355469 301.480469 L 321.734375 301.453125 L 322.113281 301.429688 L 322.871094 301.375 L 323.253906 301.347656 L 323.632812 301.324219 L 325.148438 301.214844 L 325.53125 301.1875 L 327.425781 301.050781 L 327.808594 301.023438 L 328.1875 300.996094 L 328.566406 300.964844 L 329.324219 300.910156 L 329.703125 300.878906 L 330.085938 300.851562 L 330.464844 300.824219 L 330.84375 300.792969 L 331.222656 300.765625 L 331.980469 300.703125 L 332.363281 300.675781 L 333.121094 300.613281 L 333.5 300.585938 L 334.636719 300.492188 L 335.019531 300.460938 L 336.914062 300.304688 L 337.296875 300.273438 L 338.054688 300.210938 L 338.433594 300.175781 L 339.191406 300.113281 L 339.574219 300.078125 L 339.953125 300.046875 L 340.332031 300.011719 L 340.710938 299.980469 L 341.089844 299.945312 L 341.46875 299.914062 L 341.851562 299.878906 L 342.609375 299.808594 L 342.988281 299.777344 L 343.746094 299.707031 L 344.128906 299.671875 L 345.644531 299.53125 L 346.023438 299.492188 L 346.40625 299.457031 L 347.164062 299.386719 L 347.542969 299.347656 L 347.921875 299.3125 L 348.300781 299.273438 L 348.683594 299.238281 L 349.0625 299.199219 L 349.441406 299.164062 L 350.578125 299.046875 L 350.960938 299.007812 L 351.339844 298.972656 L 352.476562 298.855469 L 352.855469 298.8125 L 353.238281 298.773438 L 353.996094 298.695312 L 354.375 298.652344 L 355.132812 298.574219 L 355.511719 298.53125 L 355.894531 298.488281 L 356.273438 298.449219 L 357.03125 298.363281 L 357.410156 298.324219 L 357.789062 298.28125 L 358.171875 298.238281 L 359.6875 298.066406 L 360.066406 298.019531 L 360.449219 297.976562 L 360.828125 297.933594 L 361.207031 297.886719 L 361.585938 297.84375 L 361.964844 297.796875 L 362.34375 297.753906 L 362.726562 297.707031 L 363.105469 297.660156 L 363.484375 297.617188 L 364.621094 297.476562 L 365.003906 297.429688 L 365.382812 297.382812 L 365.761719 297.332031 L 366.898438 297.191406 L 367.28125 297.140625 L 367.660156 297.09375 L 368.417969 296.992188 L 368.796875 296.945312 L 369.175781 296.894531 L 369.558594 296.84375 L 371.453125 296.589844 L 371.835938 296.539062 L 372.214844 296.484375 L 372.59375 296.433594 L 372.972656 296.378906 L 373.351562 296.328125 L 373.730469 296.273438 L 374.113281 296.21875 L 374.492188 296.167969 L 376.386719 295.894531 L 376.769531 295.839844 L 377.148438 295.78125 L 377.90625 295.671875 L 378.285156 295.613281 L 378.664062 295.558594 L 379.046875 295.5 L 379.804688 295.382812 L 380.183594 295.328125 L 380.941406 295.210938 L 381.324219 295.152344 L 381.703125 295.089844 L 382.460938 294.972656 L 382.839844 294.910156 L 383.21875 294.851562 L 383.601562 294.789062 L 383.980469 294.730469 L 384.738281 294.605469 L 385.117188 294.546875 L 385.496094 294.484375 L 385.878906 294.421875 L 386.257812 294.359375 L 386.636719 294.292969 L 387.773438 294.105469 L 388.15625 294.039062 L 388.535156 293.976562 L 389.292969 293.84375 L 389.671875 293.78125 L 390.050781 293.714844 L 390.433594 293.648438 L 391.570312 293.449219 L 391.949219 293.378906 L 392.328125 293.3125 L 392.710938 293.246094 L 393.089844 293.175781 L 393.46875 293.109375 L 394.605469 292.898438 L 394.988281 292.832031 L 396.125 292.621094 L 396.503906 292.546875 L 397.261719 292.40625 L 397.644531 292.332031 L 398.023438 292.261719 L 398.402344 292.1875 L 398.78125 292.117188 L 399.539062 291.96875 L 399.921875 291.894531 L 401.816406 291.523438 L 402.199219 291.445312 L 402.578125 291.371094 L 402.957031 291.292969 L 403.335938 291.21875 L 404.09375 291.0625 L 404.476562 290.984375 L 406.371094 290.59375 L 406.753906 290.511719 L 407.132812 290.433594 L 407.511719 290.351562 L 407.890625 290.273438 L 408.648438 290.109375 L 409.03125 290.03125 L 410.167969 289.785156 L 410.546875 289.699219 L 410.925781 289.617188 L 411.308594 289.535156 L 411.6875 289.449219 L 412.066406 289.367188 L 412.445312 289.28125 L 412.824219 289.199219 L 413.203125 289.113281 L 413.585938 289.027344 L 415.480469 288.597656 L 415.863281 288.507812 L 416.621094 288.335938 L 417.378906 288.15625 L 417.757812 288.070312 L 418.136719 287.980469 L 418.519531 287.890625 L 420.035156 287.53125 L 420.414062 287.4375 L 420.796875 287.347656 L 421.175781 287.253906 L 421.554688 287.164062 L 422.3125 286.976562 L 422.691406 286.886719 L 423.074219 286.792969 L 424.210938 286.511719 L 424.589844 286.414062 L 424.96875 286.320312 L 425.351562 286.226562 L 425.730469 286.128906 L 426.109375 286.035156 L 427.246094 285.742188 L 427.628906 285.648438 L 428.007812 285.550781 L 428.386719 285.449219 L 429.523438 285.15625 L 429.90625 285.054688 L 430.285156 284.957031 L 430.664062 284.855469 L 431.042969 284.757812 L 431.800781 284.554688 L 432.183594 284.453125 L 433.699219 284.046875 L 434.078125 283.941406 L 434.460938 283.839844 L 434.839844 283.734375 L 435.21875 283.632812 L 436.355469 283.316406 L 436.738281 283.210938 L 438.253906 282.789062 L 438.632812 282.679688 L 439.011719 282.574219 L 439.394531 282.464844 L 439.773438 282.359375 L 441.289062 281.921875 L 441.671875 281.8125 L 442.808594 281.484375 L 443.1875 281.371094 L 443.566406 281.261719 L 443.949219 281.148438 L 444.328125 281.039062 L 445.84375 280.585938 L 446.226562 280.472656 L 446.984375 280.246094 L 447.363281 280.128906 L 448.121094 279.902344 L 448.503906 279.785156 L 448.882812 279.667969 L 449.261719 279.554688 L 450.398438 279.203125 L 450.78125 279.085938 L 451.160156 278.96875 L 451.539062 278.847656 L 452.296875 278.613281 L 452.675781 278.492188 L 453.058594 278.375 L 454.953125 277.769531 L 455.335938 277.648438 L 456.472656 277.285156 L 456.851562 277.160156 L 457.230469 277.039062 L 457.613281 276.914062 L 457.992188 276.792969 L 459.886719 276.167969 L 460.269531 276.042969 L 460.648438 275.917969 L 461.027344 275.789062 L 461.40625 275.664062 L 461.785156 275.535156 L 462.164062 275.410156 L 462.546875 275.28125 L 462.925781 275.15625 L 464.441406 274.640625 L 464.824219 274.511719 L 465.203125 274.378906 L 465.960938 274.121094 L 466.339844 273.988281 L 466.71875 273.859375 L 467.101562 273.726562 L 467.480469 273.59375 L 467.859375 273.464844 L 468.996094 273.066406 L 469.378906 272.933594 L 469.757812 272.800781 L 470.136719 272.664062 L 470.515625 272.53125 L 470.894531 272.394531 L 471.273438 272.261719 L 471.65625 272.125 L 472.035156 271.992188 L 473.550781 271.445312 L 473.933594 271.308594 L 474.691406 271.035156 L 475.070312 270.894531 L 475.828125 270.621094 L 476.210938 270.480469 L 476.589844 270.339844 L 476.96875 270.203125 L 478.105469 269.78125 L 478.488281 269.640625 L 479.625 269.21875 L 480.003906 269.074219 L 480.382812 268.933594 L 480.761719 268.789062 L 481.144531 268.648438 L 481.902344 268.359375 L 482.28125 268.21875 L 483.039062 267.929688 L 483.421875 267.785156 L 483.800781 267.640625 L 484.179688 267.492188 L 484.9375 267.203125 L 485.316406 267.054688 L 485.699219 266.910156 L 486.078125 266.761719 L 486.457031 266.617188 L 487.59375 266.171875 L 487.976562 266.023438 L 489.492188 265.429688 L 489.871094 265.277344 L 490.253906 265.128906 L 490.632812 264.976562 L 491.011719 264.828125 L 491.769531 264.523438 L 492.148438 264.375 L 492.53125 264.222656 L 494.046875 263.613281 L 494.425781 263.457031 L 494.808594 263.304688 L 495.1875 263.152344 L 495.566406 262.996094 L 495.945312 262.84375 L 496.324219 262.6875 L 496.703125 262.535156 L 497.085938 262.378906 L 498.980469 261.597656 L 499.363281 261.441406 L 500.121094 261.128906 L 500.5 260.96875 L 500.878906 260.8125 L 501.257812 260.652344 L 501.636719 260.496094 L 502.019531 260.335938 L 502.398438 260.175781 L 502.777344 260.019531 L 503.914062 259.539062 L 504.296875 259.378906 L 505.433594 258.898438 L 505.8125 258.734375 L 506.191406 258.574219 L 506.574219 258.414062 L 507.332031 258.085938 L 507.710938 257.925781 L 508.089844 257.761719 L 508.46875 257.601562 L 508.851562 257.4375 L 510.746094 256.617188 L 511.128906 256.453125 L 511.507812 256.285156 L 512.265625 255.957031 L 512.644531 255.789062 L 513.023438 255.625 L 513.40625 255.457031 L 513.785156 255.292969 L 514.164062 255.125 L 514.542969 254.960938 L 515.300781 254.625 L 515.683594 254.457031 L 517.578125 253.617188 L 517.960938 253.449219 L 518.339844 253.277344 L 519.097656 252.941406 L 519.476562 252.769531 L 519.855469 252.601562 L 520.238281 252.429688 L 520.617188 252.261719 L 521.375 251.917969 L 521.753906 251.75 L 522.511719 251.40625 L 522.894531 251.234375 L 524.789062 250.375 L 525.171875 250.199219 L 525.929688 249.855469 L 526.308594 249.679688 L 527.066406 249.335938 L 527.449219 249.160156 L 527.828125 248.984375 L 528.207031 248.8125 L 528.964844 248.460938 L 529.34375 248.289062 L 529.726562 248.113281 L 531.621094 247.234375 L 532.003906 247.058594 L 532.382812 246.882812 L 532.761719 246.703125 L 533.898438 246.175781 L 534.28125 245.996094 L 534.660156 245.820312 L 535.039062 245.640625 L 535.417969 245.464844 L 535.796875 245.285156 L 536.175781 245.109375 L 536.558594 244.929688 L 536.9375 244.75 L 537.316406 244.574219 L 538.453125 244.035156 L 538.835938 243.855469 L 539.214844 243.679688 L 539.972656 243.320312 L 540.351562 243.136719 L 540.730469 242.957031 L 541.113281 242.777344 L 542.25 242.238281 L 542.628906 242.054688 L 543.386719 241.695312 L 543.769531 241.511719 L 544.527344 241.152344 L 545.285156 240.785156 L 545.664062 240.605469 L 546.046875 240.421875 L 546.425781 240.242188 L 547.183594 239.875 L 547.5625 239.695312 L 547.941406 239.511719 L 548.324219 239.328125 L 549.460938 238.777344 L 549.839844 238.597656 L 550.21875 238.414062 L 550.601562 238.230469 L 551.359375 237.863281 L 551.738281 237.675781 L 552.496094 237.308594 L 552.878906 237.125 L 553.636719 236.757812 L 554.015625 236.570312 L 554.773438 236.203125 L 555.15625 236.015625 L 555.914062 235.648438 L 556.292969 235.460938 L 556.671875 235.277344 L 557.050781 235.089844 L 557.433594 234.90625 L 557.8125 234.71875 L 558.191406 234.535156 L 558.570312 234.347656 L 558.949219 234.164062 L 559.328125 233.976562 L 559.710938 233.789062 L 560.089844 233.605469 L 560.847656 233.230469 L 561.226562 233.046875 "/>
<path fill-rule="nonzero" fill="rgb(100%, 100%, 100%)" fill-opacity="1" stroke-width="1" stroke-linecap="butt" stroke-linejoin="miter" stroke="rgb(0%, 0%, 0%)" stroke-opacity="1" stroke-miterlimit="2" d="M 439 387 L 578 387 L 578 332 L 439 332 Z M 439 387 "/>
<path fill="none" stroke-width="1" stroke-linecap="butt" stroke-linejoin="miter" stroke="rgb(0%, 0%, 0%)" stroke-opacity="1" stroke-miterlimit="1.154701" d="M 105.773438 393.5 L 105.773438 398.5 "/>
<path fill="none" stroke-width="1" stroke-linecap="butt" stroke-linejoin="miter" stroke="rgb(0%, 0%, 0%)" stroke-opacity="1" stroke-miterlimit="1.154701" d="M 181.683594 393.5 L 181.683594 398.5 "/>
<path fill="none" stroke-width="1" stroke-linecap="butt" stroke-linejoin="miter" stroke="rgb(0%, 0%, 0%)" stroke-opacity="1" stroke-miterlimit="1.154701" d="M 257.589844 393.5 L 257.589844 398.5 "/>
<path fill="none" stroke-width="1" stroke-linecap="butt" stroke-linejoin="miter" stroke="rgb(0%, 0%, 0%)" stroke-opacity="1" stroke-miterlimit="1.154701" d="M 333.5 393.5 L 333.5 398.5 "/>
<path fill="none" stroke-width="1" stroke-linecap="butt" stroke-linejoin="miter" stroke="rgb(0%, 0%, 0%)" stroke-opacity="1" stroke-miterlimit="1.154701" d="M 409.410156 393.5 L 409.410156 398.5 "/>
<path fill="none" stroke-width="1" stroke-linecap="butt" stroke-linejoin="miter" stroke="rgb(0%, 0%, 0%)" stroke-opacity="1" stroke-miterlimit="1.154701" d="M 485.316406 393.5 L 485.316406 398.5 "/>
<path fill="none" stroke-width="1" stroke-linecap="butt" stroke-linejoin="miter" stroke="rgb(0%, 0%, 0%)" stroke-opacity="1" stroke-miterlimit="1.154701" d="M 561.226562 393.5 L 561.226562 398.5 "/>
<path fill="none" stroke-width="1" stroke-linecap="butt" stroke-linejoin="miter" stroke="rgb(0%, 0%, 0%)" stroke-opacity="1" stroke-miterlimit="1.154701" d="M 82.5 304.640625 L 77.5 304.640625 "/>
<path fill="none" stroke-width="1" stroke-linecap="butt" stroke-linejoin="miter" stroke="rgb(0%, 0%, 0%)" stroke-opacity="1" stroke-miterlimit="1.154701" d="M 82.5 198.519531 L 77.5 198.519531 "/>
<path fill="none" stroke-width="1" stroke-linecap="butt" stroke-linejoin="miter" stroke="rgb(0%, 0%, 0%)" stroke-opacity="1" stroke-miterlimit="1.154701" d="M 82.5 92.398438 L 77.5 92.398438 "/>
<path fill="none" stroke-width="1.5" stroke-linecap="butt" stroke-linejoin="miter" stroke="rgb(0%, 44.705883%, 69.803923%)" stroke-opacity="1" stroke-miterlimit="2" d="M 445.03125 348 L 465.03125 348 "/>
<path fill="none" stroke-width="1.5" stroke-linecap="butt" stroke-linejoin="miter" stroke="rgb(90.196079%, 62.352943%, 0%)" stroke-opacity="1" stroke-miterlimit="2" d="M 445.03125 371 L 465.03125 371 "/>
<g fill="rgb(0%, 0%, 0%)" fill-opacity="1">
<use xlink:href="#glyph-1-2-4f99f423" x="470.033007" y="351.892"/>
</g>
<g fill="rgb(0%, 0%, 0%)" fill-opacity="1">
<use xlink:href="#glyph-0-1-4f99f423" x="475.479007" y="351.892"/>
</g>
<g fill="rgb(0%, 0%, 0%)" fill-opacity="1">
<use xlink:href="#glyph-1-3-4f99f423" x="482.493007" y="351.892"/>
</g>
<g fill="rgb(0%, 0%, 0%)" fill-opacity="1">
<use xlink:href="#glyph-0-0-4f99f423" x="486.665007" y="351.892"/>
</g>
<g fill="rgb(0%, 0%, 0%)" fill-opacity="1">
<use xlink:href="#glyph-1-4-4f99f423" x="491.887007" y="351.892"/>
</g>
<g fill="rgb(0%, 0%, 0%)" fill-opacity="1">
<use xlink:href="#glyph-1-5-4f99f423" x="497.333006" y="351.892"/>
</g>
<g fill="rgb(0%, 0%, 0%)" fill-opacity="1">
<use xlink:href="#glyph-23-0-4f99f423" x="470.033005" y="376.103"/>
</g>
<g fill="rgb(0%, 0%, 0%)" fill-opacity="1">
<use xlink:href="#glyph-23-1-4f99f423" x="477.817005" y="376.103"/>
</g>
<g fill="rgb(0%, 0%, 0%)" fill-opacity="1">
<use xlink:href="#glyph-23-2-4f99f423" x="485.601006" y="376.103"/>
</g>
<g fill="rgb(0%, 0%, 0%)" fill-opacity="1">
<use xlink:href="#glyph-23-3-4f99f423" x="495.709003" y="376.103"/>
</g>
<g fill="rgb(0%, 0%, 0%)" fill-opacity="1">
<use xlink:href="#glyph-24-0-4f99f423" x="499.601004" y="376.103"/>
</g>
<g fill="rgb(0%, 0%, 0%)" fill-opacity="1">
<use xlink:href="#glyph-24-1-4f99f423" x="503.493004" y="376.103"/>
</g>
<g fill="rgb(0%, 0%, 0%)" fill-opacity="1">
<use xlink:href="#glyph-24-2-4f99f423" x="508.155003" y="376.103"/>
</g>
<g fill="rgb(0%, 0%, 0%)" fill-opacity="1">
<use xlink:href="#glyph-23-4-4f99f423" x="515.939003" y="376.103"/>
</g>
<g fill="rgb(0%, 0%, 0%)" fill-opacity="1">
<use xlink:href="#glyph-25-0-4f99f423" x="523.723003" y="376.103"/>
</g>
<g fill="rgb(0%, 0%, 0%)" fill-opacity="1">
<use xlink:href="#glyph-23-5-4f99f423" x="531.507004" y="376.103"/>
</g>
<g fill="rgb(0%, 0%, 0%)" fill-opacity="1">
<use xlink:href="#glyph-23-6-4f99f423" x="539.291" y="376.103"/>
</g>
<g fill="rgb(0%, 0%, 0%)" fill-opacity="1">
<use xlink:href="#glyph-23-7-4f99f423" x="547.074997" y="376.103"/>
</g>
<g fill="rgb(0%, 0%, 0%)" fill-opacity="1">
<use xlink:href="#glyph-23-8-4f99f423" x="554.074997" y="376.103"/>
</g>
<g fill="rgb(0%, 0%, 0%)" fill-opacity="1">
<use xlink:href="#glyph-23-5-4f99f423" x="557.182999" y="376.103"/>
</g>
<g fill="rgb(0%, 0%, 0%)" fill-opacity="1">
<use xlink:href="#glyph-23-9-4f99f423" x="564.966995" y="376.103"/>
</g>
<path fill="none" stroke-width="1" stroke-linecap="butt" stroke-linejoin="miter" stroke="rgb(0%, 0%, 0%)" stroke-opacity="1" stroke-miterlimit="1.154701" d="M 82.5 393 L 584.5 393 "/>
<path fill="none" stroke-width="1" stroke-linecap="butt" stroke-linejoin="miter" stroke="rgb(0%, 0%, 0%)" stroke-opacity="1" stroke-miterlimit="1.154701" d="M 83 393.5 L 83 35.5 "/>
<path fill="none" stroke-width="1" stroke-linecap="butt" stroke-linejoin="miter" stroke="rgb(0%, 0%, 0%)" stroke-opacity="1" stroke-miterlimit="1.154701" d="M 82.5 36 L 584.5 36 "/>
<path fill="none" stroke-width="1" stroke-linecap="butt" stroke-linejoin="miter" stroke="rgb(0%, 0%, 0%)" stroke-opacity="1" stroke-miterlimit="1.154701" d="M 584 393.5 L 584 35.5 "/>
</svg>
